<?xml version="1.0" encoding="utf-8"?>
<!-- Generator: Adobe Illustrator 22.0.1, SVG Export Plug-In . SVG Version: 6.00 Build 0)  -->
<svg version="1.1" id="Calque_1" xmlns="http://www.w3.org/2000/svg" xmlns:xlink="http://www.w3.org/1999/xlink" x="0px" y="0px"
	 viewBox="0 0 404.1 192.4" style="enable-background:new 0 0 404.1 192.4;" xml:space="preserve">
<style type="text/css">
	.st0{fill:#3B5098;}
	.st1{fill:#A9C327;}
	.st2{fill:#FFFFFF;}
	.st3{fill:#AAC427;}
	.st4{fill:#878787;}
	.st5{fill:#E30613;}
</style>
<g>
	<g>
		<path class="st0" d="M199.5,68.7h13.1v5.9h-20.2V36.8h7V68.7z"/>
		<path class="st0" d="M234,66.6h-9.5l-1.9,8.1h-7.1l10.1-37.8h7.3L243,74.6h-7.1L234,66.6z M225.9,60.7h6.6l-3.2-13.4h-0.1
			L225.9,60.7z"/>
		<path class="st0" d="M247.1,74.6V36.8h10.6c3.7,0,6.6,0.9,8.7,2.6c2.1,1.7,3.1,4.3,3.1,7.7c0,1.8-0.4,3.4-1.1,4.8
			c-0.8,1.4-1.9,2.4-3.4,3.1c1.9,0.5,3.3,1.5,4.2,3c0.9,1.6,1.4,3.4,1.4,5.5c0,3.6-1,6.4-2.9,8.2c-2,1.9-4.8,2.8-8.5,2.8H247.1z
			 M254.1,52.8h3.9c1.4,0,2.5-0.5,3.3-1.3c0.8-0.8,1.1-2.1,1.1-3.6c0-1.8-0.4-3.1-1.2-3.9c-0.8-0.8-2-1.2-3.6-1.2h-3.6V52.8z
			 M254.1,58v10.8h5c1.5,0,2.6-0.4,3.3-1.3s1.1-2.2,1.1-3.9c0-1.8-0.3-3.2-0.9-4.2c-0.6-1-1.6-1.5-3-1.5H254.1z"/>
		<path class="st0" d="M323.6,50h0.1l4.9-13.2h8.1l-8.7,18.8l9.3,19.1h-8.5l-5-13.5h-0.1l-5,13.5h-8.2l8.9-19.1l-8.7-18.8h8.1
			L323.6,50z"/>
		<path class="st0" d="M214.9,113.7l0.1,0.2c0,4.2-0.9,7.3-2.8,9.4c-1.9,2.1-4.7,3.2-8.4,3.2c-3.7,0-6.7-1.2-8.9-3.6
			c-2.2-2.4-3.3-5.8-3.3-10.2v-11.3c0-4.4,1.1-7.8,3.2-10.2c2.1-2.4,5-3.6,8.6-3.6c3.8,0,6.7,1.1,8.6,3.2c1.9,2.1,3,5.3,3,9.5
			l-0.1,0.2h-6.8c0.1-2.5-0.2-4.3-1-5.4c-0.7-1.1-2-1.6-3.9-1.6c-1.6,0-2.8,0.6-3.6,1.9c-0.8,1.3-1.3,3.3-1.3,5.9v11.4
			c0,2.7,0.4,4.7,1.3,6c0.9,1.3,2.2,1.9,3.9,1.9c1.7,0,2.9-0.5,3.5-1.5c0.7-1,1-2.8,0.9-5.3H214.9z"/>
		<path class="st0" d="M239.6,109.2h-12.1v10.7h14.2v5.9h-21.2V88h21.2v5.9h-14.1v9.4h12.1V109.2z"/>
		<path class="st0" d="M253.7,119.9h13.1v5.9h-20.2V88h7V119.9z"/>
		<path class="st0" d="M276.7,104.2h0.1l6-16.2h7.6l-10.3,24.4v13.5h-7v-13.9L263.2,88h7.7L276.7,104.2z"/>
		<path class="st0" d="M308.5,117.8h-9.5l-1.9,8.1h-7.1L300.2,88h7.3l10.1,37.8h-7.1L308.5,117.8z M300.5,111.9h6.6l-3.2-13.4h-0.1
			L300.5,111.9z"/>
	</g>
	<g>
		<path d="M202.9,142.1v10.7c0,1.7-0.5,3-1.4,3.9c-0.9,0.9-2.2,1.4-3.7,1.4c-1.5,0-2.7-0.5-3.7-1.4c-0.9-0.9-1.4-2.2-1.4-3.9v-10.7
			h2.9v10.7c0,1,0.2,1.7,0.6,2.1c0.4,0.5,0.9,0.7,1.6,0.7c0.7,0,1.2-0.2,1.6-0.6c0.4-0.4,0.6-1.2,0.6-2.2v-10.7H202.9z"/>
		<path d="M216,157.9h-2.9l-4.6-10.1l-0.1,0v10.1h-2.9v-15.8h2.9l4.6,10.1l0.1,0v-10.1h2.9V157.9z"/>
		<path d="M221.9,157.9H219v-15.8h2.9V157.9z"/>
		<path d="M229.3,153.8l0.1,0.6h0.1l0.1-0.6l2.5-11.8h3.1l-4.2,15.8h-3l-4.2-15.8h3.1L229.3,153.8z"/>
		<path d="M244.9,150.9h-5v4.5h5.9v2.5H237v-15.8h8.8v2.5h-5.9v3.9h5V150.9z"/>
		<path d="M250.8,151.6v6.3h-2.9v-15.8h4.9c1.5,0,2.6,0.4,3.5,1.2c0.8,0.8,1.3,2,1.3,3.4c0,0.8-0.2,1.5-0.5,2.1
			c-0.4,0.6-0.9,1.1-1.5,1.4c0.8,0.3,1.3,0.7,1.7,1.4c0.3,0.6,0.5,1.4,0.5,2.4v1.1c0,0.4,0,0.9,0.1,1.4c0.1,0.5,0.3,0.9,0.5,1.1v0.2
			h-3c-0.2-0.2-0.4-0.6-0.5-1.1c-0.1-0.5-0.1-1.1-0.1-1.6v-1.1c0-0.8-0.2-1.4-0.5-1.8c-0.3-0.4-0.7-0.6-1.3-0.6H250.8z M250.8,149.1
			h2c0.6,0,1.1-0.2,1.4-0.6c0.3-0.4,0.5-0.9,0.5-1.6c0-0.7-0.2-1.3-0.5-1.7c-0.3-0.4-0.8-0.6-1.3-0.6h-2V149.1z"/>
		<path d="M267,153.8c0-0.6-0.2-1.1-0.5-1.5c-0.3-0.4-0.8-0.7-1.6-1.1c-1.6-0.6-2.7-1.2-3.5-1.9s-1.2-1.7-1.2-3
			c0-1.3,0.5-2.3,1.4-3.2c0.9-0.8,2.1-1.2,3.5-1.2c1.4,0,2.6,0.5,3.5,1.4c0.9,0.9,1.3,2,1.3,3.4l0,0.1H267c0-0.7-0.2-1.3-0.5-1.8
			c-0.3-0.4-0.8-0.7-1.5-0.7c-0.6,0-1,0.2-1.4,0.6c-0.3,0.4-0.5,0.8-0.5,1.4c0,0.5,0.2,0.9,0.5,1.3c0.4,0.3,1,0.7,1.9,1.1
			c1.4,0.5,2.5,1.1,3.2,1.9c0.7,0.8,1.1,1.8,1.1,3.1c0,1.4-0.4,2.4-1.3,3.2c-0.9,0.8-2,1.2-3.4,1.2c-1.4,0-2.7-0.4-3.7-1.3
			s-1.6-2.1-1.5-3.8l0-0.1h2.8c0,1,0.2,1.7,0.6,2.1c0.4,0.4,1,0.6,1.8,0.6c0.6,0,1.1-0.2,1.4-0.5C266.9,154.8,267,154.3,267,153.8z"
			/>
		<path d="M275.4,157.9h-2.9v-15.8h2.9V157.9z"/>
		<path d="M286.8,144.6h-3.4v13.3h-2.9v-13.3h-3.4v-2.5h9.7V144.6z"/>
		<path d="M296.7,150.9h-5v4.5h5.9v2.5h-8.8v-15.8h8.8v2.5h-5.9v3.9h5V150.9z M293.2,138.1h3.1l0,0.1l-2.6,2.8l-2.4,0L293.2,138.1z"
			/>
		<path d="M304.8,157.9v-15.8h4.5c1.5,0,2.8,0.6,3.8,1.8c1,1.2,1.5,2.8,1.5,4.7v2.7c0,1.9-0.5,3.5-1.5,4.7c-1,1.2-2.3,1.8-3.8,1.8
			H304.8z M307.7,144.6v10.9h1.4c0.8,0,1.4-0.4,1.9-1.1c0.4-0.7,0.7-1.7,0.7-3v-2.7c0-1.2-0.2-2.2-0.7-3c-0.4-0.7-1.1-1.1-1.9-1.1
			H307.7z"/>
		<path d="M325.1,150.9h-5v4.5h5.9v2.5h-8.8v-15.8h8.8v2.5h-5.9v3.9h5V150.9z"/>
		<path d="M336.2,155.4h5.5v2.5h-8.4v-15.8h2.9V155.4z"/>
		<path d="M345.8,148.9L345.8,148.9l2.6-6.8h3.2l-4.3,10.2v5.6h-2.9v-5.8l-4.2-10h3.2L345.8,148.9z"/>
		<path d="M363,152.2c0,1.8-0.5,3.3-1.4,4.3c-1,1-2.2,1.6-3.8,1.6s-2.8-0.5-3.8-1.6c-0.9-1-1.4-2.5-1.4-4.3v-4.4
			c0-1.8,0.5-3.3,1.4-4.3c0.9-1.1,2.2-1.6,3.8-1.6c1.6,0,2.8,0.5,3.8,1.6c1,1.1,1.4,2.5,1.4,4.3V152.2z M360.1,147.8
			c0-1.1-0.2-2-0.6-2.6c-0.4-0.6-1-0.9-1.7-0.9c-0.8,0-1.3,0.3-1.7,0.9c-0.4,0.6-0.6,1.4-0.6,2.6v4.5c0,1.1,0.2,2,0.6,2.6
			c0.4,0.6,1,0.9,1.7,0.9c0.8,0,1.3-0.3,1.7-0.9c0.4-0.6,0.6-1.4,0.6-2.6V147.8z"/>
		<path d="M376,157.9H373l-4.6-10.1l-0.1,0v10.1h-2.9v-15.8h2.9l4.6,10.1l0.1,0v-10.1h2.9V157.9z"/>
	</g>
	<rect x="277" y="36.9" class="st0" width="28.5" height="5.7"/>
	<rect x="277" y="52.9" class="st0" width="28.5" height="5.7"/>
	<rect x="277" y="68.9" class="st0" width="28.5" height="5.7"/>
	
		<rect x="28.2" y="28.2" transform="matrix(6.123234e-17 -1 1 6.123234e-17 1.500013e-04 192.3792)" class="st1" width="136.1" height="136.1"/>
	<polygon class="st0" points="164.2,28.2 164.2,164.2 28.2,164.2 	"/>
	<path class="st2" d="M101.7,100c0,7.3,0,16.5,0,16.5c0,3.1-2.5,5.6-5.6,5.6c-3.1,0-5.6-2.5-5.6-5.6c0-0.2,0-0.5,0-0.7V100h-3.8
		v15.9c0,0.2,0,0.4,0,0.6c0,5.1,4.2,9.3,9.3,9.3c5.1,0,9.3-4.2,9.3-9.3c0,0,0-9.2,0-16.5H101.7z"/>
	<path class="st2" d="M117.9,100c0,7.3,0,16.4,0,16.5c0,12-9.8,21.8-21.8,21.8c-11.8,0-21.5-9.5-21.8-21.2l0-0.2v-17h-3.8v17.3
		l0,0.2c0.5,13.6,11.8,24.6,25.6,24.6c14.1,0,25.6-11.5,25.6-25.6c0-0.1,0-9.2,0-16.5H117.9z"/>
	<path class="st2" d="M109.6,100c0,7.3,0,16.5,0,16.5c0,7.4-6,13.5-13.5,13.5c-7.4,0-13.5-6-13.5-13.5c0,0,0-0.2,0-0.3V100h-4.2
		v16.3l0,0.2l0,0.1c0.1,9.7,8,17.5,17.7,17.5c9.7,0,17.7-7.9,17.7-17.7c0-0.1,0-9.2,0-16.5H109.6z"/>
	<path class="st2" d="M122.9,55.8c0,0-0.1-0.1-0.2-0.3c-0.2-0.2-0.6-0.4-0.8-0.6c-0.2-0.2-0.4-0.5-0.5-0.6c-0.1-0.1-0.3-0.5-0.5-0.5
		c-0.1-0.1-0.3-0.7-0.3-0.8c0-0.1-0.1-0.3-0.2-0.3c-0.1,0-0.4-0.2-0.6-0.4c-0.2-0.2-0.6-0.6-0.6-0.6s-0.1-0.7-0.3-1.1
		c-0.2-0.4-0.3-0.5-0.3-0.7c-0.1-0.1-0.1-0.2-0.2-0.4c0,0-0.2,0-0.5,0.1c0,0-0.5-0.4-1-0.6c-0.5-0.3-1-0.6-1.3-0.6
		c-0.2-0.1-0.5-0.2-0.7-0.3c0,0-0.3,0-0.6,0c-0.2,0-0.9,0.1-1.2,0.1c-0.3,0-1.2,0.2-1.4,0.2c-0.4,0-0.5,0.1-1.1,0.2
		c0,0-0.5,0.1-0.7,0.2c-0.2,0.1-0.7,0.3-1.1,0.3c-0.4,0-0.8,0-1.3,0.1c-0.2,0-1,0.4-1.4,0.5c-0.2,0-0.4,0.1-0.4,0.1s0.1,0.3,0.3,0.3
		c0,0-0.1,0.2-0.4,0.4c-0.3,0.1-0.5,0.2-0.9,0.4c-0.4,0.1-0.9,0.4-1.1,0.5c0,0,0.1,0.2,0.3,0.4c0,0,0.1,0-0.3,0.2
		c-0.3,0.2-1,0.5-1.4,0.6c-0.3,0.1-0.8,0.4-1,0.5c-0.3,0.2-0.3,0.2-0.7,0.4c-0.3,0.2-0.1,0.2-0.1,0.2s0.1,0,0.4,0
		c0.2,0,0.3,0.1,0.3,0.1s0,0.1-0.1,0.2c-0.1,0.1-0.4,0.4-0.9,0.8c-0.3,0.2-0.5,0.4-0.8,0.6c-0.3,0.2-0.6,0.5-0.7,0.6l0.3,0.3l0,0.2
		c-0.1,0.1-0.3,0.2-0.5,0.3c-0.2,0.1-2.3,0.4-4.6,0.3c-3.8-0.1-4.9-0.5-6.8-0.6c-2-0.1-3.4,0.3-5.2,0.9c-0.4,0.1-0.6,0.2-0.8,0.3
		c-0.8,0.2-1.5,0.4-2.2,0.6c-2.5,1-6.8,4.5-8,5.1c-1.2,0.5-1.9,0.5-2.7,0.4c-0.8-0.1-1.2-0.3-1.2-0.3s-0.4-0.9-0.9-1.3
		c-0.7-0.5-2.3-1-2.3-1s-0.3,1.1,0.3,2.1c0.7,1.2,2,1.1,2.5,1.3c0.9,0.3,2.9,0.8,4.6,0.1c1.5-0.6,3.1-1.6,4.2-2.3
		c1.1-0.6,2.9-1.2,4.4-1.3c-0.1,0.3-0.1,0.5-0.2,0.7c-0.4,1.3-2,4-2.3,4.4c-0.4,0.5-1.8,2.3-2.1,2.5c-0.2,0.2-0.9,0.5-1.6,0.6
		c-0.8,0.2-3.3,0.4-3.3,0.4s-0.4,2.2-1,3.5c-0.2,0.5-0.7,1.6-0.7,1.6s0.9,0.8,1.2,1.9c0.2,0.3,0.5,0.9,0.7,0.9h3.9
		c0,0,0.3-0.9-0.5-1.2c-0.4-0.2-0.3-0.3-1.2-0.7c-0.4-0.1-0.6-0.3-0.8-0.8c-0.2-0.5-0.2-1.3-0.2-1.3s0.1-0.8,0.5-1
		c0.5-0.2,1.7,0.2,2.8,0c1.7-0.3,4.2-1.2,5.1-1.6c0.8-0.3,2.1-1.6,2.6-2c0.4-0.4,0.9-0.5,0.9-0.5s0.5,0.5,1.5,1.4
		c1,0.9,1.4,1.3,1.7,1.6c0.3,0.3,0.8,0.9,0.8,1.1c0.3,0.9,0.2,2.4,0.2,2.4s1.6,0.6,2.1,1c0.5,0.5,0.9,1.3,0.9,1.3l4.8,0
		c0.2-0.6-0.2-0.9-0.3-1c-0.2-0.2-0.4-0.6-0.8-0.7c-1.6-0.6-1.6-0.3-2.1-0.7c-0.3-0.3-1.1-0.8-1.3-1.1c-0.2-0.3-0.5-1.8-0.5-3.1
		c0-0.8-0.1-1.5-0.1-2c1.5-0.3,3.8-0.6,5.6,0.2c0.4,0.2,1.3,0.6,2.3,0.9c0.1,0.3,0.2,0.6,0.1,1.1c-0.1,1.3-1.4,2.9-1.4,2.9
		s0.6,1.6,0.8,1.8c0.2,0.2,0.8,0.7,1,1.1c0.1,0.2,0.3,0.6,0.3,0.6h4.1c0,0,0.3-0.8-0.3-1.1c-0.2-0.1-0.5-0.4-0.7-0.5
		c-1-0.5-1.2-0.3-1.6-0.7c-0.2-0.2-0.4-1-0.4-1s1.9-1.9,2.3-2.4c0.5-0.6,0.6-0.8,0.8-1.1c1.4-0.1,2.9-0.4,3.5-0.7
		c0.1-0.1,0.3-0.2,0.4-0.2c0.2,0.1,0.3,0.2,0.4,0.3c0.8,0.5,2.7,1.3,3.4,1.8c0.7,0.5,1.6,2.2,1.6,2.2s1.6,0.6,2,1.2
		c0.3,0.4,1.8,0.8,1.8,0.8s0.5,0,1,0.6c0.6,0.5,0.7,0.7,1.2,0.7c1,0.1,2.7,0.1,2.7,0.1s0.5-1-0.3-1.4c-0.8-0.4-0.1-0.7-1.9-1.3
		c-0.5-0.2-1.4-0.5-1.6-0.7c-0.3-0.2-1.8-2.4-2.6-3.3c-0.8-0.9-2.3-3-2.3-3l-0.3-0.8l0.1-0.6c0.1-0.1,0.2-0.2,0.3-0.3
		c0.3-0.3,0.7-0.7,0.8-1c0.3-0.6,0.2,0,0.4-0.3c0.1-0.2,0.7-0.5,0.9-0.7c0.2-0.1,0.5-0.5,0.5-0.5s0,0.2,0.1,0.5c0,0,0.2-0.1,0.4-0.4
		c0.2-0.3,0.2-0.3,0.5-0.6c0.3-0.3,0.5-0.9,0.7-1.3c0.2-0.4,0.3-0.5,0.4-0.6c0,0,0.1,0.3,0.2,0.5c0,0,0.2-0.2,0.3-0.4
		c0.1-0.2,0.1-0.4,0.3-0.6c0.1-0.2,0.2-0.5,0.4-0.6c0.1-0.1,0.4-0.2,0.7-0.2c0.2,0,0.5,0.1,0.7,0.2c0.2,0.1,0.3-0.1,0.5,0.2
		c0.2,0.2,0.4,0.3,0.4,0.3s0,0,0.2-0.1c0.2-0.1,0.2-0.1,0.4-0.2c0.2-0.1,0.2-0.2,0.3-0.3c0.2-0.1,0.2-0.3,0.3-0.5
		c0.1-0.2,0-0.4,0.1-0.5c0.1-0.1,0.4-0.1,0.5-0.4c0.1-0.3,0.1-0.3,0.1-0.4c0,0,0.1-0.2,0.1-0.2s0.3-0.3,0.4-0.5
		c0-0.2,0.1-0.3,0.2-0.4C123.4,56.4,123.3,56.1,122.9,55.8"/>
	<rect x="70.4" y="92.3" class="st2" width="51.2" height="3.8"/>
	<rect x="70.4" y="84.7" class="st2" width="51.2" height="3.8"/>
	<rect x="70.4" y="77" class="st2" width="51.2" height="3.8"/>
</g>
<rect x="28.7" y="376.7" class="st0" width="45.4" height="45.4"/>
<rect x="28.7" y="308.2" class="st3" width="45.4" height="45.4"/>
<g>
	<path class="st4" d="M88.2,318.4L88.2,318.4c0,1-0.2,1.7-0.7,2.2s-1.1,0.7-2,0.7s-1.6-0.3-2.1-0.8s-0.8-1.3-0.8-2.3v-2.5
		c0-1,0.3-1.8,0.8-2.3s1.2-0.8,2-0.8c0.9,0,1.6,0.2,2.1,0.7s0.7,1.2,0.7,2.2l0,0h-1.6c0-0.6-0.1-1-0.2-1.2s-0.5-0.4-0.9-0.4
		c-0.4,0-0.7,0.1-0.9,0.4c-0.2,0.3-0.3,0.7-0.3,1.3v2.6c0,0.6,0.1,1,0.3,1.3c0.2,0.3,0.5,0.4,0.9,0.4c0.4,0,0.7-0.1,0.8-0.3
		s0.2-0.6,0.2-1.2H88.2z"/>
	<path class="st4" d="M93.2,316.3h-1.6v-1.5h1.6V316.3z M93.2,321.2h-1.6v-1.5h1.6V321.2z"/>
	<path class="st4" d="M101.5,318h0.7v1.3h-0.7v1.9h-1.7v-1.9H97l-0.1-1l2.9-5.6h1.7V318z M98.4,318h1.4V315l0,0l-0.1,0.2L98.4,318z"
		/>
	<path class="st4" d="M108.1,321.2h-5V320l2.3-2.9c0.3-0.4,0.5-0.8,0.7-1.1s0.2-0.6,0.2-0.9c0-0.4-0.1-0.7-0.2-0.9
		c-0.1-0.2-0.3-0.3-0.6-0.3c-0.3,0-0.5,0.1-0.6,0.4s-0.2,0.6-0.2,1.1H103l0,0c0-0.8,0.2-1.4,0.7-2s1.1-0.8,1.8-0.8
		c0.8,0,1.4,0.2,1.8,0.7s0.7,1.1,0.7,1.9c0,0.5-0.1,1-0.4,1.5s-0.7,1-1.2,1.7l-1.1,1.6h2.9V321.2z"/>
	<path class="st4" d="M116.6,312.6l1.5,6.3h0l1.5-6.3h2.2v8.5h-1.7v-2.5l0.1-3.3l0,0l-1.6,5.8h-1.1l-1.6-5.8l0,0l0.1,3.3v2.5h-1.7
		v-8.5H116.6z"/>
	<path class="st4" d="M126.6,316.3h-1.6v-1.5h1.6V316.3z M126.6,321.2h-1.6v-1.5h1.6V321.2z"/>
	<path class="st4" d="M134.9,318h0.7v1.3h-0.7v1.9h-1.7v-1.9h-2.8l-0.1-1l2.9-5.6h1.7V318z M131.8,318h1.4V315l0,0l-0.1,0.2
		L131.8,318z"/>
	<path class="st4" d="M144.9,312.6h1.7v5.9c0,0.8-0.2,1.5-0.7,2s-1.1,0.7-1.8,0.7c-0.8,0-1.4-0.2-1.8-0.7s-0.7-1.1-0.7-1.9l0,0h1.6
		c0,0.4,0.1,0.8,0.2,1s0.4,0.3,0.6,0.3c0.2,0,0.4-0.1,0.6-0.4s0.2-0.6,0.2-1V312.6z"/>
	<path class="st4" d="M151.8,316.3h-1.6v-1.5h1.6V316.3z M151.8,321.2h-1.6v-1.5h1.6V321.2z"/>
	<path class="st4" d="M157.8,320c0.3,0,0.6-0.2,0.8-0.5s0.3-0.8,0.3-1.3v-0.3c-0.2,0.2-0.3,0.4-0.5,0.5s-0.4,0.2-0.7,0.2
		c-0.7,0-1.2-0.3-1.6-0.8s-0.6-1.2-0.6-2.1c0-0.9,0.2-1.6,0.7-2.2s1.1-0.9,1.8-0.9c0.7,0,1.4,0.3,1.8,0.9s0.7,1.4,0.7,2.5v2.1
		c0,1-0.3,1.8-0.8,2.4s-1.2,0.9-2,0.9c-0.2,0-0.5,0-0.8-0.1s-0.5-0.2-0.8-0.3l0.2-1.2c0.2,0.1,0.4,0.2,0.6,0.2S157.6,320,157.8,320z
		 M158.1,317.2c0.2,0,0.4,0,0.5-0.1s0.3-0.2,0.4-0.4v-1c0-0.6-0.1-1.1-0.2-1.4s-0.4-0.5-0.6-0.5h0c-0.2,0-0.4,0.1-0.6,0.5
		s-0.2,0.7-0.2,1.2c0,0.5,0.1,0.9,0.2,1.2S157.8,317.2,158.1,317.2z"/>
	<path class="st4" d="M164.7,312.5c0.3,0,0.5,0,0.8,0.1s0.5,0.2,0.7,0.3l-0.3,1.3c-0.2-0.1-0.4-0.2-0.6-0.2s-0.4-0.1-0.6-0.1
		c-0.4,0-0.7,0.2-1,0.6s-0.4,0.9-0.3,1.6l0,0c0.2-0.2,0.3-0.3,0.6-0.4s0.5-0.2,0.8-0.2c0.6,0,1.1,0.3,1.5,0.8s0.5,1.2,0.5,2.1
		c0,0.9-0.2,1.6-0.7,2.1s-1.1,0.8-1.8,0.8c-0.8,0-1.4-0.3-1.9-0.9s-0.7-1.4-0.7-2.5v-1.8c0-1.1,0.3-2,0.8-2.6
		S163.8,312.5,164.7,312.5z M164.3,316.8c-0.2,0-0.4,0-0.6,0.1s-0.3,0.2-0.4,0.3v0.7c0,0.7,0.1,1.2,0.3,1.5s0.4,0.5,0.7,0.5
		c0.3,0,0.5-0.2,0.6-0.5s0.2-0.7,0.2-1.1c0-0.5-0.1-0.9-0.2-1.1C164.7,316.9,164.5,316.8,164.3,316.8z"/>
	<path class="st4" d="M179,321.2h-1.7l-2.6-5.5l0,0v5.4H173v-8.5h1.7l2.6,5.4l0,0v-5.4h1.7V321.2z"/>
	<path class="st4" d="M184.3,316.3h-1.6v-1.5h1.6V316.3z M184.3,321.2h-1.6v-1.5h1.6V321.2z"/>
	<path class="st4" d="M193.2,317.8c0,1.1-0.2,2-0.7,2.6s-1.1,0.9-1.8,0.9c-0.8,0-1.4-0.3-1.8-0.9s-0.7-1.5-0.7-2.6V316
		c0-1.1,0.2-2,0.7-2.6s1.1-0.9,1.8-0.9s1.4,0.3,1.8,0.9s0.7,1.5,0.7,2.6V317.8z M191.5,315.8c0-0.7-0.1-1.2-0.2-1.5
		s-0.3-0.5-0.6-0.4h0c-0.3,0-0.5,0.1-0.6,0.4s-0.2,0.8-0.2,1.5v2.1c0,0.7,0.1,1.2,0.2,1.5s0.3,0.5,0.6,0.4h0c0.3,0,0.5-0.1,0.6-0.4
		s0.2-0.8,0.2-1.5V315.8z"/>
	<path class="st4" d="M84.5,332.2v3.4h-1.7V327h2.8c0.8,0,1.5,0.2,2,0.7s0.7,1.1,0.7,1.8c0,0.4-0.1,0.8-0.3,1.2s-0.5,0.6-0.9,0.8
		c0.4,0.1,0.8,0.4,0.9,0.7s0.3,0.8,0.3,1.3v0.6c0,0.2,0,0.5,0.1,0.8s0.2,0.5,0.3,0.6v0.1H87c-0.1-0.1-0.2-0.3-0.3-0.6
		s-0.1-0.6-0.1-0.9v-0.6c0-0.4-0.1-0.8-0.3-1s-0.4-0.4-0.7-0.4H84.5z M84.5,330.8h1.1c0.3,0,0.6-0.1,0.8-0.3s0.3-0.5,0.3-0.9
		c0-0.4-0.1-0.7-0.3-0.9s-0.4-0.3-0.8-0.3h-1.1V330.8z"/>
	<path class="st4" d="M93.6,330.7H92v-1.5h1.6V330.7z M93.6,335.6H92v-1.5h1.6V335.6z"/>
	<path class="st4" d="M101,335.6h-1.7v-6.8l-1.6,0v-1.2l3.2-0.6V335.6z"/>
	<path class="st4" d="M106.5,326.9c0.3,0,0.5,0,0.8,0.1s0.5,0.2,0.7,0.3l-0.3,1.3c-0.2-0.1-0.4-0.2-0.6-0.2s-0.4-0.1-0.6-0.1
		c-0.4,0-0.7,0.2-1,0.6s-0.4,0.9-0.3,1.6l0,0c0.2-0.2,0.3-0.3,0.6-0.4s0.5-0.2,0.8-0.2c0.6,0,1.1,0.3,1.5,0.8s0.5,1.2,0.5,2.1
		c0,0.9-0.2,1.6-0.7,2.1s-1.1,0.8-1.8,0.8c-0.8,0-1.4-0.3-1.9-0.9s-0.7-1.4-0.7-2.5v-1.8c0-1.1,0.3-2,0.8-2.6
		S105.6,326.9,106.5,326.9z M106.1,331.2c-0.2,0-0.4,0-0.6,0.1s-0.3,0.2-0.4,0.3v0.7c0,0.7,0.1,1.2,0.3,1.5s0.4,0.5,0.7,0.5
		c0.3,0,0.5-0.2,0.6-0.5s0.2-0.7,0.2-1.1c0-0.5-0.1-0.9-0.2-1.1C106.6,331.3,106.4,331.2,106.1,331.2z"/>
	<path class="st4" d="M111.6,334.4c0.3,0,0.6-0.2,0.8-0.5s0.3-0.8,0.3-1.3v-0.3c-0.2,0.2-0.3,0.4-0.5,0.5s-0.4,0.2-0.7,0.2
		c-0.7,0-1.2-0.3-1.6-0.8s-0.6-1.2-0.6-2.1c0-0.9,0.2-1.6,0.7-2.2s1.1-0.9,1.8-0.9c0.7,0,1.4,0.3,1.8,0.9s0.7,1.4,0.7,2.5v2.1
		c0,1-0.3,1.8-0.8,2.4s-1.2,0.9-2,0.9c-0.2,0-0.5,0-0.8-0.1s-0.5-0.2-0.8-0.3l0.2-1.2c0.2,0.1,0.4,0.2,0.6,0.2
		S111.4,334.4,111.6,334.4z M111.9,331.6c0.2,0,0.4,0,0.5-0.1s0.3-0.2,0.4-0.4v-1c0-0.6-0.1-1.1-0.2-1.4s-0.4-0.5-0.6-0.5h0
		c-0.2,0-0.4,0.1-0.6,0.5s-0.2,0.7-0.2,1.2c0,0.5,0.1,0.9,0.2,1.2S111.6,331.6,111.9,331.6z"/>
	<path class="st4" d="M123.4,333.4l0.1,0.3h0l0.1-0.3l1.4-6.4h1.8l-2.4,8.5h-1.7l-2.4-8.5h1.8L123.4,333.4z"/>
	<path class="st4" d="M131.5,330.7h-1.6v-1.5h1.6V330.7z M131.5,335.6h-1.6v-1.5h1.6V335.6z"/>
	<path class="st4" d="M138.9,335.6h-1.7v-6.8l-1.6,0v-1.2l3.2-0.6V335.6z"/>
	<path class="st4" d="M143.5,334.4c0.3,0,0.6-0.2,0.8-0.5s0.3-0.8,0.3-1.3v-0.3c-0.2,0.2-0.3,0.4-0.5,0.5s-0.4,0.2-0.7,0.2
		c-0.7,0-1.2-0.3-1.6-0.8s-0.6-1.2-0.6-2.1c0-0.9,0.2-1.6,0.7-2.2s1.1-0.9,1.8-0.9c0.7,0,1.4,0.3,1.8,0.9s0.7,1.4,0.7,2.5v2.1
		c0,1-0.3,1.8-0.8,2.4s-1.2,0.9-2,0.9c-0.2,0-0.5,0-0.8-0.1s-0.5-0.2-0.8-0.3l0.2-1.2c0.2,0.1,0.4,0.2,0.6,0.2
		S143.2,334.4,143.5,334.4z M143.8,331.6c0.2,0,0.4,0,0.5-0.1s0.3-0.2,0.4-0.4v-1c0-0.6-0.1-1.1-0.2-1.4s-0.4-0.5-0.6-0.5h0
		c-0.2,0-0.4,0.1-0.6,0.5s-0.2,0.7-0.2,1.2c0,0.5,0.1,0.9,0.2,1.2S143.5,331.6,143.8,331.6z"/>
	<path class="st4" d="M147.5,331.8l0.4-4.8h4.2v1.4h-2.8l-0.2,2c0.1-0.1,0.3-0.2,0.5-0.3s0.4-0.1,0.6-0.1c0.7,0,1.3,0.2,1.6,0.7
		s0.6,1.2,0.6,2.1c0,0.8-0.2,1.5-0.6,2s-1,0.8-1.8,0.8c-0.7,0-1.3-0.2-1.8-0.7s-0.7-1-0.7-1.8l0,0l1.6-0.1c0,0.4,0.1,0.7,0.2,0.9
		s0.4,0.3,0.6,0.3c0.3,0,0.5-0.1,0.6-0.4s0.2-0.6,0.2-1.1c0-0.5-0.1-0.9-0.2-1.2s-0.4-0.4-0.7-0.4c-0.2,0-0.4,0.1-0.5,0.2
		s-0.2,0.3-0.3,0.5L147.5,331.8z"/>
	<path class="st4" d="M158.7,335.6V327h2.5c0.9,0,1.6,0.2,2.1,0.6s0.7,1,0.7,1.7c0,0.4-0.1,0.8-0.3,1.1s-0.4,0.5-0.8,0.7
		c0.4,0.1,0.8,0.3,1,0.7s0.3,0.8,0.3,1.2c0,0.8-0.2,1.4-0.7,1.9s-1.1,0.6-2,0.6H158.7z M160.4,330.6h0.9c0.3,0,0.6-0.1,0.8-0.3
		c0.2-0.2,0.3-0.5,0.3-0.8c0-0.4-0.1-0.7-0.3-0.9c-0.2-0.2-0.5-0.3-0.8-0.3h-0.8V330.6z M160.4,331.8v2.4h1.2c0.4,0,0.6-0.1,0.8-0.3
		s0.3-0.5,0.3-0.9c0-0.4-0.1-0.7-0.2-0.9s-0.4-0.3-0.7-0.3H160.4z"/>
	<path class="st4" d="M169.4,330.7h-1.6v-1.5h1.6V330.7z M169.4,335.6h-1.6v-1.5h1.6V335.6z"/>
	<path class="st4" d="M174.8,330.6h0.8c0.3,0,0.5-0.1,0.7-0.3c0.1-0.2,0.2-0.5,0.2-0.9c0-0.3-0.1-0.6-0.2-0.8
		c-0.1-0.2-0.4-0.3-0.6-0.3c-0.2,0-0.4,0.1-0.6,0.3c-0.2,0.2-0.2,0.4-0.2,0.7h-1.6l0,0c0-0.7,0.2-1.2,0.7-1.7c0.5-0.4,1-0.6,1.7-0.6
		c0.8,0,1.4,0.2,1.9,0.6s0.7,1,0.7,1.8c0,0.4-0.1,0.7-0.3,1.1s-0.5,0.6-0.8,0.8c0.4,0.2,0.7,0.4,0.9,0.8s0.3,0.8,0.3,1.2
		c0,0.8-0.2,1.4-0.7,1.8s-1.1,0.7-1.9,0.7c-0.7,0-1.3-0.2-1.8-0.6s-0.7-1-0.7-1.8l0,0h1.6c0,0.3,0.1,0.6,0.3,0.8s0.4,0.3,0.6,0.3
		c0.3,0,0.5-0.1,0.7-0.3s0.3-0.5,0.3-0.9c0-0.5-0.1-0.8-0.2-1s-0.4-0.3-0.7-0.3h-0.8V330.6z"/>
	<path class="st4" d="M181.4,334.4c0.3,0,0.6-0.2,0.8-0.5s0.3-0.8,0.3-1.3v-0.3c-0.2,0.2-0.3,0.4-0.5,0.5s-0.4,0.2-0.7,0.2
		c-0.7,0-1.2-0.3-1.6-0.8s-0.6-1.2-0.6-2.1c0-0.9,0.2-1.6,0.7-2.2s1.1-0.9,1.8-0.9c0.7,0,1.4,0.3,1.8,0.9s0.7,1.4,0.7,2.5v2.1
		c0,1-0.3,1.8-0.8,2.4c-0.5,0.6-1.2,0.9-2,0.9c-0.2,0-0.5,0-0.8-0.1s-0.5-0.2-0.8-0.3l0.2-1.2c0.2,0.1,0.4,0.2,0.6,0.2
		S181.1,334.4,181.4,334.4z M181.6,331.6c0.2,0,0.4,0,0.5-0.1s0.3-0.2,0.4-0.4v-1c0-0.6-0.1-1.1-0.2-1.4s-0.4-0.5-0.6-0.5h0
		c-0.2,0-0.4,0.1-0.6,0.5s-0.2,0.7-0.2,1.2c0,0.5,0.1,0.9,0.2,1.2S181.4,331.6,181.6,331.6z"/>
</g>
<g>
	<path class="st4" d="M88.2,387.3L88.2,387.3c0,1-0.2,1.7-0.7,2.2s-1.1,0.7-2,0.7s-1.6-0.3-2.1-0.8s-0.8-1.3-0.8-2.3v-2.5
		c0-1,0.3-1.8,0.8-2.3s1.2-0.8,2-0.8c0.9,0,1.6,0.2,2.1,0.7s0.7,1.2,0.7,2.2l0,0h-1.6c0-0.6-0.1-1-0.2-1.2s-0.5-0.4-0.9-0.4
		c-0.4,0-0.7,0.1-0.9,0.4c-0.2,0.3-0.3,0.7-0.3,1.3v2.6c0,0.6,0.1,1,0.3,1.3c0.2,0.3,0.5,0.4,0.9,0.4c0.4,0,0.7-0.1,0.8-0.3
		s0.2-0.6,0.2-1.2H88.2z"/>
	<path class="st4" d="M93.2,385.2h-1.6v-1.5h1.6V385.2z M93.2,390h-1.6v-1.5h1.6V390z"/>
	<path class="st4" d="M101.9,383.7c0,0.4-0.1,0.8-0.3,1.1s-0.5,0.6-0.8,0.8c0.4,0.2,0.7,0.5,0.9,0.8s0.3,0.8,0.3,1.2
		c0,0.8-0.2,1.4-0.7,1.8s-1.1,0.6-1.8,0.6s-1.3-0.2-1.8-0.6s-0.7-1-0.7-1.8c0-0.5,0.1-0.9,0.3-1.2s0.5-0.6,0.9-0.8
		c-0.3-0.2-0.6-0.4-0.8-0.8s-0.3-0.7-0.3-1.1c0-0.8,0.2-1.3,0.6-1.8s1-0.6,1.7-0.6s1.3,0.2,1.7,0.6S101.9,383,101.9,383.7z
		 M100.4,387.5c0-0.4-0.1-0.7-0.2-0.9s-0.4-0.3-0.6-0.3c-0.3,0-0.5,0.1-0.6,0.3s-0.2,0.5-0.2,0.9c0,0.4,0.1,0.7,0.2,0.9
		s0.4,0.3,0.6,0.3c0.3,0,0.5-0.1,0.6-0.3S100.4,387.9,100.4,387.5z M100.3,383.8c0-0.3-0.1-0.6-0.2-0.8c-0.1-0.2-0.3-0.3-0.5-0.3
		s-0.4,0.1-0.5,0.3c-0.1,0.2-0.2,0.5-0.2,0.8c0,0.4,0.1,0.6,0.2,0.8c0.1,0.2,0.3,0.3,0.5,0.3s0.4-0.1,0.5-0.3
		C100.2,384.5,100.3,384.2,100.3,383.8z"/>
	<path class="st4" d="M108.1,382.8c-0.8,1-1.3,1.9-1.5,2.9s-0.4,2.1-0.5,3.5l-0.1,0.8h-1.7l0.1-0.8c0.1-1.3,0.3-2.4,0.7-3.5
		c0.3-1.1,0.8-2,1.5-2.9h-3.6v-1.3h5.2V382.8z"/>
	<path class="st4" d="M116.6,381.5l1.5,6.3h0l1.5-6.3h2.2v8.5h-1.7v-2.5l0.1-3.3l0,0l-1.6,5.8h-1.1l-1.6-5.8l0,0l0.1,3.3v2.5h-1.7
		v-8.5H116.6z"/>
	<path class="st4" d="M126.6,385.2h-1.6v-1.5h1.6V385.2z M126.6,390h-1.6v-1.5h1.6V390z"/>
	<path class="st4" d="M135.5,382.8c-0.8,1-1.3,1.9-1.5,2.9s-0.4,2.1-0.5,3.5l-0.1,0.8h-1.7l0.1-0.8c0.1-1.3,0.3-2.4,0.7-3.5
		c0.3-1.1,0.8-2,1.5-2.9h-3.6v-1.3h5.2V382.8z"/>
	<path class="st4" d="M141.5,390h-5v-1.1l2.3-2.9c0.3-0.4,0.5-0.8,0.7-1.1s0.2-0.6,0.2-0.9c0-0.4-0.1-0.7-0.2-0.9
		c-0.1-0.2-0.3-0.3-0.6-0.3c-0.3,0-0.5,0.1-0.6,0.4s-0.2,0.6-0.2,1.1h-1.6l0,0c0-0.8,0.2-1.4,0.7-2s1.1-0.8,1.8-0.8
		c0.8,0,1.4,0.2,1.8,0.7s0.7,1.1,0.7,1.9c0,0.5-0.1,1-0.4,1.5s-0.7,1-1.2,1.7l-1.1,1.6h2.9V390z"/>
	<path class="st4" d="M150.8,381.5h1.7v5.9c0,0.8-0.2,1.5-0.7,2s-1.1,0.7-1.8,0.7c-0.8,0-1.4-0.2-1.8-0.7s-0.7-1.1-0.7-1.9l0,0h1.6
		c0,0.4,0.1,0.8,0.2,1s0.4,0.3,0.6,0.3c0.2,0,0.4-0.1,0.6-0.4s0.2-0.6,0.2-1V381.5z"/>
	<path class="st4" d="M157.8,385.2h-1.6v-1.5h1.6V385.2z M157.8,390h-1.6v-1.5h1.6V390z"/>
	<path class="st4" d="M166.7,382.8c-0.8,1-1.3,1.9-1.5,2.9s-0.4,2.1-0.5,3.5l-0.1,0.8h-1.7l0.1-0.8c0.1-1.3,0.3-2.4,0.7-3.5
		c0.3-1.1,0.8-2,1.5-2.9h-3.6v-1.3h5.2V382.8z"/>
	<path class="st4" d="M179,390h-1.7l-2.6-5.5l0,0v5.4H173v-8.5h1.7l2.6,5.4l0,0v-5.4h1.7V390z"/>
	<path class="st4" d="M184.3,385.2h-1.6v-1.5h1.6V385.2z M184.3,390h-1.6v-1.5h1.6V390z"/>
	<path class="st4" d="M191.7,390h-1.7v-6.8l-1.6,0V382l3.2-0.6V390z"/>
	<path class="st4" d="M84.5,401v3.4h-1.7v-8.5h2.8c0.8,0,1.5,0.2,2,0.7s0.7,1.1,0.7,1.8c0,0.4-0.1,0.8-0.3,1.2s-0.5,0.6-0.9,0.8
		c0.4,0.1,0.8,0.4,0.9,0.7s0.3,0.8,0.3,1.3v0.6c0,0.2,0,0.5,0.1,0.8s0.2,0.5,0.3,0.6v0.1H87c-0.1-0.1-0.2-0.3-0.3-0.6
		s-0.1-0.6-0.1-0.9v-0.6c0-0.4-0.1-0.8-0.3-1S86,401,85.7,401H84.5z M84.5,399.7h1.1c0.3,0,0.6-0.1,0.8-0.3s0.3-0.5,0.3-0.9
		c0-0.4-0.1-0.7-0.3-0.9s-0.4-0.3-0.8-0.3h-1.1V399.7z"/>
	<path class="st4" d="M93.6,399.6H92v-1.5h1.6V399.6z M93.6,404.4H92v-1.5h1.6V404.4z"/>
	<path class="st4" d="M97.7,400.6l0.4-4.8h4.2v1.4h-2.8l-0.2,2c0.1-0.1,0.3-0.2,0.5-0.3s0.4-0.1,0.6-0.1c0.7,0,1.3,0.2,1.6,0.7
		s0.6,1.2,0.6,2.1c0,0.8-0.2,1.5-0.6,2s-1,0.8-1.8,0.8c-0.7,0-1.3-0.2-1.8-0.7s-0.7-1-0.7-1.8l0,0l1.6-0.1c0,0.4,0.1,0.7,0.2,0.9
		s0.4,0.3,0.6,0.3c0.3,0,0.5-0.1,0.6-0.4s0.2-0.6,0.2-1.1c0-0.5-0.1-0.9-0.2-1.2s-0.4-0.4-0.7-0.4c-0.2,0-0.4,0.1-0.5,0.2
		s-0.2,0.3-0.3,0.5L97.7,400.6z"/>
	<path class="st4" d="M105.7,403.2c0.3,0,0.6-0.2,0.8-0.5s0.3-0.8,0.3-1.3V401c-0.2,0.2-0.3,0.4-0.5,0.5s-0.4,0.2-0.7,0.2
		c-0.7,0-1.2-0.3-1.6-0.8s-0.6-1.2-0.6-2.1c0-0.9,0.2-1.6,0.7-2.2s1.1-0.9,1.8-0.9c0.7,0,1.4,0.3,1.8,0.9s0.7,1.4,0.7,2.5v2.1
		c0,1-0.3,1.8-0.8,2.4s-1.2,0.9-2,0.9c-0.2,0-0.5,0-0.8-0.1s-0.5-0.2-0.8-0.3l0.2-1.2c0.2,0.1,0.4,0.2,0.6,0.2
		S105.4,403.2,105.7,403.2z M105.9,400.5c0.2,0,0.4,0,0.5-0.1s0.3-0.2,0.4-0.4v-1c0-0.6-0.1-1.1-0.2-1.4s-0.4-0.5-0.6-0.5h0
		c-0.2,0-0.4,0.1-0.6,0.5s-0.2,0.7-0.2,1.2c0,0.5,0.1,0.9,0.2,1.2S105.7,400.5,105.9,400.5z"/>
	<path class="st4" d="M117.5,402.2l0.1,0.3h0l0.1-0.3l1.4-6.4h1.8l-2.4,8.5h-1.7l-2.4-8.5h1.8L117.5,402.2z"/>
	<path class="st4" d="M125.5,399.6h-1.6v-1.5h1.6V399.6z M125.5,404.4h-1.6v-1.5h1.6V404.4z"/>
	<path class="st4" d="M134.3,398.1c0,0.4-0.1,0.8-0.3,1.1s-0.5,0.6-0.8,0.8c0.4,0.2,0.7,0.5,0.9,0.8s0.3,0.8,0.3,1.2
		c0,0.8-0.2,1.4-0.7,1.8s-1.1,0.6-1.8,0.6s-1.3-0.2-1.8-0.6s-0.7-1-0.7-1.8c0-0.5,0.1-0.9,0.3-1.2s0.5-0.6,0.9-0.8
		c-0.3-0.2-0.6-0.4-0.8-0.8s-0.3-0.7-0.3-1.1c0-0.8,0.2-1.3,0.6-1.8s1-0.6,1.7-0.6s1.3,0.2,1.7,0.6S134.3,397.4,134.3,398.1z
		 M132.7,401.9c0-0.4-0.1-0.7-0.2-0.9s-0.4-0.3-0.6-0.3c-0.3,0-0.5,0.1-0.6,0.3s-0.2,0.5-0.2,0.9c0,0.4,0.1,0.7,0.2,0.9
		s0.4,0.3,0.6,0.3c0.3,0,0.5-0.1,0.6-0.3S132.7,402.3,132.7,401.9z M132.6,398.2c0-0.3-0.1-0.6-0.2-0.8c-0.1-0.2-0.3-0.3-0.5-0.3
		s-0.4,0.1-0.5,0.3c-0.1,0.2-0.2,0.5-0.2,0.8c0,0.4,0.1,0.6,0.2,0.8c0.1,0.2,0.3,0.3,0.5,0.3s0.4-0.1,0.5-0.3
		C132.5,398.9,132.6,398.6,132.6,398.2z"/>
	<path class="st4" d="M140.4,401.1c0,1.1-0.2,2-0.7,2.6s-1.1,0.9-1.8,0.9c-0.8,0-1.4-0.3-1.8-0.9s-0.7-1.5-0.7-2.6v-1.8
		c0-1.1,0.2-2,0.7-2.6c0.5-0.6,1.1-0.9,1.8-0.9s1.4,0.3,1.8,0.9s0.7,1.5,0.7,2.6V401.1z M138.7,399.1c0-0.7-0.1-1.2-0.2-1.5
		s-0.3-0.5-0.6-0.4h0c-0.3,0-0.5,0.1-0.6,0.4s-0.2,0.8-0.2,1.5v2.1c0,0.7,0.1,1.2,0.2,1.5s0.3,0.5,0.6,0.4h0c0.3,0,0.5-0.1,0.6-0.4
		s0.2-0.8,0.2-1.5V399.1z"/>
	<path class="st4" d="M146.7,404.4v-8.5h2.5c0.9,0,1.6,0.2,2.1,0.6s0.7,1,0.7,1.7c0,0.4-0.1,0.8-0.3,1.1s-0.4,0.5-0.8,0.7
		c0.4,0.1,0.8,0.3,1,0.7s0.3,0.8,0.3,1.2c0,0.8-0.2,1.4-0.7,1.9s-1.1,0.6-2,0.6H146.7z M148.4,399.5h0.9c0.3,0,0.6-0.1,0.8-0.3
		c0.2-0.2,0.3-0.5,0.3-0.8c0-0.4-0.1-0.7-0.3-0.9c-0.2-0.2-0.5-0.3-0.8-0.3h-0.8V399.5z M148.4,400.6v2.4h1.2c0.4,0,0.6-0.1,0.8-0.3
		s0.3-0.5,0.3-0.9c0-0.4-0.1-0.7-0.2-0.9s-0.4-0.3-0.7-0.3H148.4z"/>
	<path class="st4" d="M157.4,399.6h-1.6v-1.5h1.6V399.6z M157.4,404.4h-1.6v-1.5h1.6V404.4z"/>
	<path class="st4" d="M164.8,404.4h-1.7v-6.8l-1.6,0v-1.2l3.2-0.6V404.4z"/>
	<path class="st4" d="M167.4,400.6l0.4-4.8h4.2v1.4h-2.8l-0.2,2c0.1-0.1,0.3-0.2,0.5-0.3s0.4-0.1,0.6-0.1c0.7,0,1.3,0.2,1.6,0.7
		s0.6,1.2,0.6,2.1c0,0.8-0.2,1.5-0.6,2s-1,0.8-1.8,0.8c-0.7,0-1.3-0.2-1.8-0.7s-0.7-1-0.7-1.8l0,0l1.6-0.1c0,0.4,0.1,0.7,0.2,0.9
		s0.4,0.3,0.6,0.3c0.3,0,0.5-0.1,0.6-0.4s0.2-0.6,0.2-1.1c0-0.5-0.1-0.9-0.2-1.2s-0.4-0.4-0.7-0.4c-0.2,0-0.4,0.1-0.5,0.2
		s-0.2,0.3-0.3,0.5L167.4,400.6z"/>
	<path class="st4" d="M178.3,404.4h-5v-1.1l2.3-2.9c0.3-0.4,0.5-0.8,0.7-1.1s0.2-0.6,0.2-0.9c0-0.4-0.1-0.7-0.2-0.9
		c-0.1-0.2-0.3-0.3-0.6-0.3c-0.3,0-0.5,0.1-0.6,0.4s-0.2,0.6-0.2,1.1h-1.6l0,0c0-0.8,0.2-1.4,0.7-2s1.1-0.8,1.8-0.8
		c0.8,0,1.4,0.2,1.8,0.7s0.7,1.1,0.7,1.9c0,0.5-0.1,1-0.4,1.5s-0.7,1-1.2,1.7l-1.1,1.6h2.9V404.4z"/>
</g>
<rect x="485" y="115.9" class="st5" width="28.2" height="28.2"/>
<g>
	<g>
		<path class="st0" d="M1061.3,68.7h13.1v5.9h-20.2V36.8h7V68.7z"/>
		<path class="st0" d="M1095.9,66.6h-9.5l-1.9,8.1h-7.1l10.1-37.8h7.3l10.1,37.8h-7.1L1095.9,66.6z M1087.8,60.7h6.6l-3.2-13.4h-0.1
			L1087.8,60.7z"/>
		<path class="st0" d="M1108.9,74.6V36.8h10.6c3.7,0,6.6,0.9,8.7,2.6c2.1,1.7,3.1,4.3,3.1,7.7c0,1.8-0.4,3.4-1.1,4.8
			c-0.8,1.4-1.9,2.4-3.4,3.1c1.9,0.5,3.3,1.5,4.2,3c0.9,1.6,1.4,3.4,1.4,5.5c0,3.6-1,6.4-2.9,8.2c-2,1.9-4.8,2.8-8.5,2.8H1108.9z
			 M1116,52.8h3.9c1.4,0,2.5-0.5,3.3-1.3c0.8-0.8,1.1-2.1,1.1-3.6c0-1.8-0.4-3.1-1.2-3.9c-0.8-0.8-2-1.2-3.6-1.2h-3.6V52.8z
			 M1116,58v10.8h5c1.5,0,2.6-0.4,3.3-1.3c0.7-0.9,1.1-2.2,1.1-3.9c0-1.8-0.3-3.2-0.9-4.2c-0.6-1-1.6-1.5-3-1.5H1116z"/>
		<path class="st0" d="M1185.5,50h0.1l4.9-13.2h8.1l-8.7,18.8l9.3,19.1h-8.5l-5-13.5h-0.1l-5,13.5h-8.2l8.9-19.1l-8.7-18.8h8.1
			L1185.5,50z"/>
		<path class="st0" d="M1076.8,113.7l0.1,0.2c0,4.2-0.9,7.3-2.8,9.4s-4.7,3.2-8.4,3.2c-3.7,0-6.7-1.2-8.9-3.6
			c-2.2-2.4-3.3-5.8-3.3-10.2v-11.3c0-4.4,1.1-7.8,3.2-10.2c2.1-2.4,5-3.6,8.6-3.6c3.8,0,6.7,1.1,8.6,3.2c1.9,2.1,3,5.3,3,9.5
			l-0.1,0.2h-6.8c0.1-2.5-0.2-4.3-1-5.4c-0.7-1.1-2-1.6-3.9-1.6c-1.6,0-2.8,0.6-3.6,1.9c-0.8,1.3-1.3,3.3-1.3,5.9v11.4
			c0,2.7,0.4,4.7,1.3,6c0.9,1.3,2.2,1.9,3.9,1.9c1.7,0,2.9-0.5,3.5-1.5c0.7-1,1-2.8,0.9-5.3H1076.8z"/>
		<path class="st0" d="M1101.5,109.2h-12.1v10.7h14.2v5.9h-21.2V88h21.2v5.9h-14.1v9.4h12.1V109.2z"/>
		<path class="st0" d="M1115.6,119.9h13.1v5.9h-20.2V88h7V119.9z"/>
		<path class="st0" d="M1138.6,104.2h0.1l6-16.2h7.6l-10.3,24.4v13.5h-7v-13.9L1125,88h7.7L1138.6,104.2z"/>
		<path class="st0" d="M1170.4,117.8h-9.5l-1.9,8.1h-7.1l10.1-37.8h7.3l10.1,37.8h-7.1L1170.4,117.8z M1162.4,111.9h6.6l-3.2-13.4
			h-0.1L1162.4,111.9z"/>
	</g>
	<g>
		<path d="M1064.8,142.1v10.7c0,1.7-0.5,3-1.4,3.9c-0.9,0.9-2.2,1.4-3.7,1.4c-1.5,0-2.7-0.5-3.7-1.4c-0.9-0.9-1.4-2.2-1.4-3.9v-10.7
			h2.9v10.7c0,1,0.2,1.7,0.6,2.1c0.4,0.5,0.9,0.7,1.6,0.7c0.7,0,1.2-0.2,1.6-0.6c0.4-0.4,0.6-1.2,0.6-2.2v-10.7H1064.8z"/>
		<path d="M1077.9,157.9h-2.9l-4.6-10.1l-0.1,0v10.1h-2.9v-15.8h2.9l4.6,10.1l0.1,0v-10.1h2.9V157.9z"/>
		<path d="M1083.8,157.9h-2.9v-15.8h2.9V157.9z"/>
		<path d="M1091.2,153.8l0.1,0.6h0.1l0.1-0.6l2.5-11.8h3.1l-4.2,15.8h-3l-4.2-15.8h3.1L1091.2,153.8z"/>
		<path d="M1106.8,150.9h-5v4.5h5.9v2.5h-8.8v-15.8h8.8v2.5h-5.9v3.9h5V150.9z"/>
		<path d="M1112.7,151.6v6.3h-2.9v-15.8h4.9c1.5,0,2.6,0.4,3.5,1.2c0.8,0.8,1.3,2,1.3,3.4c0,0.8-0.2,1.5-0.5,2.1
			c-0.4,0.6-0.9,1.1-1.5,1.4c0.8,0.3,1.3,0.7,1.7,1.4c0.3,0.6,0.5,1.4,0.5,2.4v1.1c0,0.4,0,0.9,0.1,1.4c0.1,0.5,0.3,0.9,0.5,1.1v0.2
			h-3c-0.2-0.2-0.4-0.6-0.5-1.1c-0.1-0.5-0.1-1.1-0.1-1.6v-1.1c0-0.8-0.2-1.4-0.5-1.8c-0.3-0.4-0.7-0.6-1.3-0.6H1112.7z
			 M1112.7,149.1h2c0.6,0,1.1-0.2,1.4-0.6c0.3-0.4,0.5-0.9,0.5-1.6c0-0.7-0.2-1.3-0.5-1.7c-0.3-0.4-0.8-0.6-1.3-0.6h-2V149.1z"/>
		<path d="M1128.9,153.8c0-0.6-0.2-1.1-0.5-1.5c-0.3-0.4-0.8-0.7-1.6-1.1c-1.6-0.6-2.7-1.2-3.5-1.9c-0.8-0.7-1.2-1.7-1.2-3
			c0-1.3,0.5-2.3,1.4-3.2c0.9-0.8,2.1-1.2,3.5-1.2c1.4,0,2.6,0.5,3.5,1.4c0.9,0.9,1.3,2,1.3,3.4l0,0.1h-2.8c0-0.7-0.2-1.3-0.5-1.8
			c-0.3-0.4-0.8-0.7-1.5-0.7c-0.6,0-1,0.2-1.4,0.6c-0.3,0.4-0.5,0.8-0.5,1.4c0,0.5,0.2,0.9,0.5,1.3c0.4,0.3,1,0.7,1.9,1.1
			c1.4,0.5,2.5,1.1,3.2,1.9c0.7,0.8,1.1,1.8,1.1,3.1c0,1.4-0.4,2.4-1.3,3.2c-0.9,0.8-2,1.2-3.4,1.2c-1.4,0-2.7-0.4-3.7-1.3
			s-1.6-2.1-1.5-3.8l0-0.1h2.8c0,1,0.2,1.7,0.6,2.1c0.4,0.4,1,0.6,1.8,0.6c0.6,0,1.1-0.2,1.4-0.5
			C1128.8,154.8,1128.9,154.3,1128.9,153.8z"/>
		<path d="M1137.2,157.9h-2.9v-15.8h2.9V157.9z"/>
		<path d="M1148.7,144.6h-3.4v13.3h-2.9v-13.3h-3.4v-2.5h9.7V144.6z"/>
		<path d="M1158.6,150.9h-5v4.5h5.9v2.5h-8.8v-15.8h8.8v2.5h-5.9v3.9h5V150.9z M1155.1,138.1h3.1l0,0.1l-2.6,2.8l-2.4,0
			L1155.1,138.1z"/>
		<path d="M1166.7,157.9v-15.8h4.5c1.5,0,2.8,0.6,3.8,1.8c1,1.2,1.5,2.8,1.5,4.7v2.7c0,1.9-0.5,3.5-1.5,4.7c-1,1.2-2.3,1.8-3.8,1.8
			H1166.7z M1169.6,144.6v10.9h1.4c0.8,0,1.4-0.4,1.9-1.1c0.4-0.7,0.7-1.7,0.7-3v-2.7c0-1.2-0.2-2.2-0.7-3c-0.4-0.7-1.1-1.1-1.9-1.1
			H1169.6z"/>
		<path d="M1187,150.9h-5v4.5h5.9v2.5h-8.8v-15.8h8.8v2.5h-5.9v3.9h5V150.9z"/>
		<path d="M1198,155.4h5.5v2.5h-8.4v-15.8h2.9V155.4z"/>
		<path d="M1207.7,148.9L1207.7,148.9l2.6-6.8h3.2l-4.3,10.2v5.6h-2.9v-5.8l-4.2-10h3.2L1207.7,148.9z"/>
		<path d="M1224.9,152.2c0,1.8-0.5,3.3-1.4,4.3c-1,1-2.2,1.6-3.8,1.6s-2.8-0.5-3.8-1.6c-0.9-1-1.4-2.5-1.4-4.3v-4.4
			c0-1.8,0.5-3.3,1.4-4.3c0.9-1.1,2.2-1.6,3.8-1.6c1.6,0,2.8,0.5,3.8,1.6c1,1.1,1.4,2.5,1.4,4.3V152.2z M1222,147.8
			c0-1.1-0.2-2-0.6-2.6c-0.4-0.6-1-0.9-1.7-0.9c-0.8,0-1.3,0.3-1.7,0.9c-0.4,0.6-0.6,1.4-0.6,2.6v4.5c0,1.1,0.2,2,0.6,2.6
			c0.4,0.6,1,0.9,1.7,0.9c0.8,0,1.3-0.3,1.7-0.9c0.4-0.6,0.6-1.4,0.6-2.6V147.8z"/>
		<path d="M1237.9,157.9h-2.9l-4.6-10.1l-0.1,0v10.1h-2.9v-15.8h2.9l4.6,10.1l0.1,0v-10.1h2.9V157.9z"/>
	</g>
	<rect x="1138.9" y="36.9" class="st0" width="28.5" height="5.7"/>
	<rect x="1138.9" y="52.9" class="st0" width="28.5" height="5.7"/>
	<rect x="1138.9" y="68.9" class="st0" width="28.5" height="5.7"/>
	
		<rect x="890" y="28.2" transform="matrix(6.123234e-17 -1 1 6.123234e-17 861.8901 1054.2692)" class="st1" width="136.1" height="136.1"/>
	<polygon class="st0" points="1026.1,28.2 1026.1,164.2 890,164.2 	"/>
	<path class="st2" d="M963.6,100c0,7.3,0,16.5,0,16.5c0,3.1-2.5,5.6-5.6,5.6c-3.1,0-5.6-2.5-5.6-5.6c0-0.2,0-0.5,0-0.7V100h-3.8
		v15.9c0,0.2,0,0.4,0,0.6c0,5.1,4.2,9.3,9.3,9.3c5.1,0,9.3-4.2,9.3-9.3c0,0,0-9.2,0-16.5H963.6z"/>
	<path class="st2" d="M979.8,100c0,7.3,0,16.4,0,16.5c0,12-9.8,21.8-21.8,21.8c-11.8,0-21.5-9.5-21.8-21.2l0-0.2v-17h-3.8v17.3
		l0,0.2c0.5,13.6,11.8,24.6,25.6,24.6c14.1,0,25.6-11.5,25.6-25.6c0-0.1,0-9.2,0-16.5H979.8z"/>
	<path class="st2" d="M971.5,100c0,7.3,0,16.5,0,16.5c0,7.4-6,13.5-13.5,13.5c-7.4,0-13.5-6-13.5-13.5c0,0,0-0.2,0-0.3V100h-4.2
		v16.3l0,0.2l0,0.1c0.1,9.7,8,17.5,17.7,17.5c9.7,0,17.7-7.9,17.7-17.7c0-0.1,0-9.2,0-16.5H971.5z"/>
	<path class="st2" d="M984.8,55.8c0,0-0.1-0.1-0.2-0.3c-0.2-0.2-0.6-0.4-0.8-0.6c-0.2-0.2-0.4-0.5-0.5-0.6c-0.1-0.1-0.3-0.5-0.5-0.5
		c-0.1-0.1-0.3-0.7-0.3-0.8c0-0.1-0.1-0.3-0.2-0.3c-0.1,0-0.4-0.2-0.6-0.4c-0.2-0.2-0.6-0.6-0.6-0.6s-0.1-0.7-0.3-1.1
		c-0.2-0.4-0.3-0.5-0.3-0.7c-0.1-0.1-0.1-0.2-0.2-0.4c0,0-0.2,0-0.5,0.1c0,0-0.5-0.4-1-0.6c-0.5-0.3-1-0.6-1.3-0.6
		c-0.2-0.1-0.5-0.2-0.7-0.3c0,0-0.3,0-0.6,0c-0.2,0-0.9,0.1-1.2,0.1c-0.3,0-1.2,0.2-1.4,0.2c-0.4,0-0.5,0.1-1.1,0.2
		c0,0-0.5,0.1-0.7,0.2c-0.2,0.1-0.7,0.3-1.1,0.3c-0.4,0-0.8,0-1.3,0.1c-0.2,0-1,0.4-1.4,0.5c-0.2,0-0.4,0.1-0.4,0.1s0.1,0.3,0.3,0.3
		c0,0-0.1,0.2-0.4,0.4c-0.3,0.1-0.5,0.2-0.9,0.4c-0.4,0.1-0.9,0.4-1.1,0.5c0,0,0.1,0.2,0.3,0.4c0,0,0.1,0-0.3,0.2
		c-0.3,0.2-1,0.5-1.4,0.6c-0.3,0.1-0.8,0.4-1,0.5c-0.3,0.2-0.3,0.2-0.7,0.4c-0.3,0.2-0.1,0.2-0.1,0.2s0.1,0,0.4,0
		c0.2,0,0.3,0.1,0.3,0.1s0,0.1-0.1,0.2c-0.1,0.1-0.4,0.4-0.9,0.8c-0.3,0.2-0.5,0.4-0.8,0.6c-0.3,0.2-0.6,0.5-0.7,0.6l0.3,0.3l0,0.2
		c-0.1,0.1-0.3,0.2-0.5,0.3c-0.2,0.1-2.3,0.4-4.6,0.3c-3.8-0.1-4.9-0.5-6.8-0.6c-2-0.1-3.4,0.3-5.2,0.9c-0.4,0.1-0.6,0.2-0.8,0.3
		c-0.8,0.2-1.5,0.4-2.2,0.6c-2.5,1-6.8,4.5-8,5.1c-1.2,0.5-1.9,0.5-2.7,0.4c-0.8-0.1-1.2-0.3-1.2-0.3s-0.4-0.9-0.9-1.3
		c-0.7-0.5-2.3-1-2.3-1s-0.3,1.1,0.3,2.1c0.7,1.2,2,1.1,2.5,1.3c0.9,0.3,2.9,0.8,4.6,0.1c1.5-0.6,3.1-1.6,4.2-2.3
		c1.1-0.6,2.9-1.2,4.4-1.3c-0.1,0.3-0.1,0.5-0.2,0.7c-0.4,1.3-2,4-2.3,4.4c-0.4,0.5-1.8,2.3-2.1,2.5c-0.2,0.2-0.9,0.5-1.6,0.6
		c-0.8,0.2-3.3,0.4-3.3,0.4s-0.4,2.2-1,3.5c-0.2,0.5-0.7,1.6-0.7,1.6s0.9,0.8,1.2,1.9c0.2,0.3,0.5,0.9,0.7,0.9h3.9
		c0,0,0.3-0.9-0.5-1.2c-0.4-0.2-0.3-0.3-1.2-0.7c-0.4-0.1-0.6-0.3-0.8-0.8c-0.2-0.5-0.2-1.3-0.2-1.3s0.1-0.8,0.5-1
		c0.5-0.2,1.7,0.2,2.8,0c1.7-0.3,4.2-1.2,5.1-1.6c0.8-0.3,2.1-1.6,2.6-2c0.4-0.4,0.9-0.5,0.9-0.5s0.5,0.5,1.5,1.4
		c1,0.9,1.4,1.3,1.7,1.6c0.3,0.3,0.8,0.9,0.8,1.1c0.3,0.9,0.2,2.4,0.2,2.4s1.6,0.6,2.1,1c0.5,0.5,0.9,1.3,0.9,1.3l4.8,0
		c0.2-0.6-0.2-0.9-0.3-1c-0.2-0.2-0.4-0.6-0.8-0.7c-1.6-0.6-1.6-0.3-2.1-0.7c-0.3-0.3-1.1-0.8-1.3-1.1c-0.2-0.3-0.5-1.8-0.5-3.1
		c0-0.8-0.1-1.5-0.1-2c1.5-0.3,3.8-0.6,5.6,0.2c0.4,0.2,1.3,0.6,2.3,0.9c0.1,0.3,0.2,0.6,0.1,1.1c-0.1,1.3-1.4,2.9-1.4,2.9
		s0.6,1.6,0.8,1.8c0.2,0.2,0.8,0.7,1,1.1c0.1,0.2,0.3,0.6,0.3,0.6h4.1c0,0,0.3-0.8-0.3-1.1c-0.2-0.1-0.5-0.4-0.7-0.5
		c-1-0.5-1.2-0.3-1.6-0.7c-0.2-0.2-0.4-1-0.4-1s1.9-1.9,2.3-2.4c0.5-0.6,0.6-0.8,0.8-1.1c1.4-0.1,2.9-0.4,3.5-0.7
		c0.1-0.1,0.3-0.2,0.4-0.2c0.2,0.1,0.3,0.2,0.4,0.3c0.8,0.5,2.7,1.3,3.4,1.8c0.7,0.5,1.6,2.2,1.6,2.2s1.6,0.6,2,1.2
		c0.3,0.4,1.8,0.8,1.8,0.8s0.5,0,1,0.6c0.6,0.5,0.7,0.7,1.2,0.7c1,0.1,2.7,0.1,2.7,0.1s0.5-1-0.3-1.4c-0.8-0.4-0.1-0.7-1.9-1.3
		c-0.5-0.2-1.4-0.5-1.6-0.7c-0.3-0.2-1.8-2.4-2.6-3.3c-0.8-0.9-2.3-3-2.3-3l-0.3-0.8l0.1-0.6c0.1-0.1,0.2-0.2,0.3-0.3
		c0.3-0.3,0.7-0.7,0.8-1c0.3-0.6,0.2,0,0.4-0.3c0.1-0.2,0.7-0.5,0.9-0.7c0.2-0.1,0.5-0.5,0.5-0.5s0,0.2,0.1,0.5c0,0,0.2-0.1,0.4-0.4
		c0.2-0.3,0.2-0.3,0.5-0.6c0.3-0.3,0.5-0.9,0.7-1.3c0.2-0.4,0.3-0.5,0.4-0.6c0,0,0.1,0.3,0.2,0.5c0,0,0.2-0.2,0.3-0.4
		c0.1-0.2,0.1-0.4,0.3-0.6c0.1-0.2,0.2-0.5,0.4-0.6c0.1-0.1,0.4-0.2,0.7-0.2c0.2,0,0.5,0.1,0.7,0.2c0.2,0.1,0.3-0.1,0.5,0.2
		c0.2,0.2,0.4,0.3,0.4,0.3s0,0,0.2-0.1c0.2-0.1,0.2-0.1,0.4-0.2c0.2-0.1,0.2-0.2,0.3-0.3c0.2-0.1,0.2-0.3,0.3-0.5
		c0.1-0.2,0-0.4,0.1-0.5c0.1-0.1,0.4-0.1,0.5-0.4c0.1-0.3,0.1-0.3,0.1-0.4c0,0,0.1-0.2,0.1-0.2s0.3-0.3,0.4-0.5
		c0-0.2,0.1-0.3,0.2-0.4C985.3,56.4,985.2,56.1,984.8,55.8"/>
	<rect x="932.3" y="92.3" class="st2" width="51.2" height="3.8"/>
	<rect x="932.3" y="84.7" class="st2" width="51.2" height="3.8"/>
	<rect x="932.3" y="77" class="st2" width="51.2" height="3.8"/>
</g>
<rect x="890.5" y="376.7" class="st0" width="45.4" height="45.4"/>
<rect x="890.5" y="308.2" class="st3" width="45.4" height="45.4"/>
<g>
	<path class="st4" d="M950.1,318.4L950.1,318.4c0,1-0.2,1.7-0.7,2.2s-1.1,0.7-2,0.7s-1.6-0.3-2.1-0.8s-0.8-1.3-0.8-2.3v-2.5
		c0-1,0.3-1.8,0.8-2.3s1.2-0.8,2-0.8c0.9,0,1.6,0.2,2.1,0.7s0.7,1.2,0.7,2.2l0,0h-1.6c0-0.6-0.1-1-0.2-1.2s-0.5-0.4-0.9-0.4
		c-0.4,0-0.7,0.1-0.9,0.4c-0.2,0.3-0.3,0.7-0.3,1.3v2.6c0,0.6,0.1,1,0.3,1.3c0.2,0.3,0.5,0.4,0.9,0.4c0.4,0,0.7-0.1,0.8-0.3
		s0.2-0.6,0.2-1.2H950.1z"/>
	<path class="st4" d="M955.1,316.3h-1.6v-1.5h1.6V316.3z M955.1,321.2h-1.6v-1.5h1.6V321.2z"/>
	<path class="st4" d="M963.4,318h0.7v1.3h-0.7v1.9h-1.7v-1.9h-2.8l-0.1-1l2.9-5.6h1.7V318z M960.3,318h1.4V315l0,0l-0.1,0.2
		L960.3,318z"/>
	<path class="st4" d="M970,321.2h-5V320l2.3-2.9c0.3-0.4,0.5-0.8,0.7-1.1s0.2-0.6,0.2-0.9c0-0.4-0.1-0.7-0.2-0.9
		c-0.1-0.2-0.3-0.3-0.6-0.3c-0.3,0-0.5,0.1-0.6,0.4s-0.2,0.6-0.2,1.1h-1.6l0,0c0-0.8,0.2-1.4,0.7-2s1.1-0.8,1.8-0.8
		c0.8,0,1.4,0.2,1.8,0.7s0.7,1.1,0.7,1.9c0,0.5-0.1,1-0.4,1.5s-0.7,1-1.2,1.7l-1.1,1.6h2.9V321.2z"/>
	<path class="st4" d="M978.5,312.6l1.5,6.3h0l1.5-6.3h2.2v8.5h-1.7v-2.5l0.1-3.3l0,0l-1.6,5.8h-1.1l-1.6-5.8l0,0l0.1,3.3v2.5h-1.7
		v-8.5H978.5z"/>
	<path class="st4" d="M988.5,316.3h-1.6v-1.5h1.6V316.3z M988.5,321.2h-1.6v-1.5h1.6V321.2z"/>
	<path class="st4" d="M996.7,318h0.7v1.3h-0.7v1.9h-1.7v-1.9h-2.8l-0.1-1l2.9-5.6h1.7V318z M993.7,318h1.4V315l0,0l-0.1,0.2
		L993.7,318z"/>
	<path class="st4" d="M1006.7,312.6h1.7v5.9c0,0.8-0.2,1.5-0.7,2s-1.1,0.7-1.8,0.7c-0.8,0-1.4-0.2-1.8-0.7s-0.7-1.1-0.7-1.9l0,0h1.6
		c0,0.4,0.1,0.8,0.2,1s0.4,0.3,0.6,0.3c0.2,0,0.4-0.1,0.6-0.4s0.2-0.6,0.2-1V312.6z"/>
	<path class="st4" d="M1013.7,316.3h-1.6v-1.5h1.6V316.3z M1013.7,321.2h-1.6v-1.5h1.6V321.2z"/>
	<path class="st4" d="M1019.7,320c0.3,0,0.6-0.2,0.8-0.5s0.3-0.8,0.3-1.3v-0.3c-0.2,0.2-0.3,0.4-0.5,0.5s-0.4,0.2-0.7,0.2
		c-0.7,0-1.2-0.3-1.6-0.8s-0.6-1.2-0.6-2.1c0-0.9,0.2-1.6,0.7-2.2s1.1-0.9,1.8-0.9c0.7,0,1.4,0.3,1.8,0.9s0.7,1.4,0.7,2.5v2.1
		c0,1-0.3,1.8-0.8,2.4s-1.2,0.9-2,0.9c-0.2,0-0.5,0-0.8-0.1s-0.5-0.2-0.8-0.3l0.2-1.2c0.2,0.1,0.4,0.2,0.6,0.2
		S1019.5,320,1019.7,320z M1020,317.2c0.2,0,0.4,0,0.5-0.1s0.3-0.2,0.4-0.4v-1c0-0.6-0.1-1.1-0.2-1.4s-0.4-0.5-0.6-0.5h0
		c-0.2,0-0.4,0.1-0.6,0.5s-0.2,0.7-0.2,1.2c0,0.5,0.1,0.9,0.2,1.2S1019.7,317.2,1020,317.2z"/>
	<path class="st4" d="M1026.5,312.5c0.3,0,0.5,0,0.8,0.1s0.5,0.2,0.7,0.3l-0.3,1.3c-0.2-0.1-0.4-0.2-0.6-0.2s-0.4-0.1-0.6-0.1
		c-0.4,0-0.7,0.2-1,0.6s-0.4,0.9-0.3,1.6l0,0c0.2-0.2,0.3-0.3,0.6-0.4s0.5-0.2,0.8-0.2c0.6,0,1.1,0.3,1.5,0.8s0.5,1.2,0.5,2.1
		c0,0.9-0.2,1.6-0.7,2.1s-1.1,0.8-1.8,0.8c-0.8,0-1.4-0.3-1.9-0.9c-0.5-0.6-0.7-1.4-0.7-2.5v-1.8c0-1.1,0.3-2,0.8-2.6
		C1024.9,312.8,1025.7,312.5,1026.5,312.5z M1026.2,316.8c-0.2,0-0.4,0-0.6,0.1s-0.3,0.2-0.4,0.3v0.7c0,0.7,0.1,1.2,0.3,1.5
		s0.4,0.5,0.7,0.5c0.3,0,0.5-0.2,0.6-0.5s0.2-0.7,0.2-1.1c0-0.5-0.1-0.9-0.2-1.1C1026.6,316.9,1026.4,316.8,1026.2,316.8z"/>
	<path class="st4" d="M1040.9,321.2h-1.7l-2.6-5.5l0,0v5.4h-1.7v-8.5h1.7l2.6,5.4l0,0v-5.4h1.7V321.2z"/>
	<path class="st4" d="M1046.2,316.3h-1.6v-1.5h1.6V316.3z M1046.2,321.2h-1.6v-1.5h1.6V321.2z"/>
	<path class="st4" d="M1055.1,317.8c0,1.1-0.2,2-0.7,2.6s-1.1,0.9-1.8,0.9c-0.8,0-1.4-0.3-1.8-0.9s-0.7-1.5-0.7-2.6V316
		c0-1.1,0.2-2,0.7-2.6s1.1-0.9,1.8-0.9s1.4,0.3,1.8,0.9s0.7,1.5,0.7,2.6V317.8z M1053.4,315.8c0-0.7-0.1-1.2-0.2-1.5
		s-0.3-0.5-0.6-0.4h0c-0.3,0-0.5,0.1-0.6,0.4s-0.2,0.8-0.2,1.5v2.1c0,0.7,0.1,1.2,0.2,1.5s0.3,0.5,0.6,0.4h0c0.3,0,0.5-0.1,0.6-0.4
		s0.2-0.8,0.2-1.5V315.8z"/>
	<path class="st4" d="M946.4,332.2v3.4h-1.7V327h2.8c0.8,0,1.5,0.2,2,0.7s0.7,1.1,0.7,1.8c0,0.4-0.1,0.8-0.3,1.2s-0.5,0.6-0.9,0.8
		c0.4,0.1,0.8,0.4,0.9,0.7s0.3,0.8,0.3,1.3v0.6c0,0.2,0,0.5,0.1,0.8s0.2,0.5,0.3,0.6v0.1h-1.7c-0.1-0.1-0.2-0.3-0.3-0.6
		s-0.1-0.6-0.1-0.9v-0.6c0-0.4-0.1-0.8-0.3-1s-0.4-0.4-0.7-0.4H946.4z M946.4,330.8h1.1c0.3,0,0.6-0.1,0.8-0.3s0.3-0.5,0.3-0.9
		c0-0.4-0.1-0.7-0.3-0.9s-0.4-0.3-0.8-0.3h-1.1V330.8z"/>
	<path class="st4" d="M955.5,330.7h-1.6v-1.5h1.6V330.7z M955.5,335.6h-1.6v-1.5h1.6V335.6z"/>
	<path class="st4" d="M962.9,335.6h-1.7v-6.8l-1.6,0v-1.2l3.2-0.6V335.6z"/>
	<path class="st4" d="M968.4,326.9c0.3,0,0.5,0,0.8,0.1s0.5,0.2,0.7,0.3l-0.3,1.3c-0.2-0.1-0.4-0.2-0.6-0.2s-0.4-0.1-0.6-0.1
		c-0.4,0-0.7,0.2-1,0.6s-0.4,0.9-0.3,1.6l0,0c0.2-0.2,0.3-0.3,0.6-0.4s0.5-0.2,0.8-0.2c0.6,0,1.1,0.3,1.5,0.8s0.5,1.2,0.5,2.1
		c0,0.9-0.2,1.6-0.7,2.1s-1.1,0.8-1.8,0.8c-0.8,0-1.4-0.3-1.9-0.9s-0.7-1.4-0.7-2.5v-1.8c0-1.1,0.3-2,0.8-2.6
		S967.5,326.9,968.4,326.9z M968,331.2c-0.2,0-0.4,0-0.6,0.1s-0.3,0.2-0.4,0.3v0.7c0,0.7,0.1,1.2,0.3,1.5s0.4,0.5,0.7,0.5
		c0.3,0,0.5-0.2,0.6-0.5s0.2-0.7,0.2-1.1c0-0.5-0.1-0.9-0.2-1.1C968.5,331.3,968.3,331.2,968,331.2z"/>
	<path class="st4" d="M973.5,334.4c0.3,0,0.6-0.2,0.8-0.5s0.3-0.8,0.3-1.3v-0.3c-0.2,0.2-0.3,0.4-0.5,0.5s-0.4,0.2-0.7,0.2
		c-0.7,0-1.2-0.3-1.6-0.8s-0.6-1.2-0.6-2.1c0-0.9,0.2-1.6,0.7-2.2s1.1-0.9,1.8-0.9c0.7,0,1.4,0.3,1.8,0.9s0.7,1.4,0.7,2.5v2.1
		c0,1-0.3,1.8-0.8,2.4s-1.2,0.9-2,0.9c-0.2,0-0.5,0-0.8-0.1s-0.5-0.2-0.8-0.3l0.2-1.2c0.2,0.1,0.4,0.2,0.6,0.2
		S973.3,334.4,973.5,334.4z M973.8,331.6c0.2,0,0.4,0,0.5-0.1s0.3-0.2,0.4-0.4v-1c0-0.6-0.1-1.1-0.2-1.4s-0.4-0.5-0.6-0.5h0
		c-0.2,0-0.4,0.1-0.6,0.5s-0.2,0.7-0.2,1.2c0,0.5,0.1,0.9,0.2,1.2S973.5,331.6,973.8,331.6z"/>
	<path class="st4" d="M985.3,333.4l0.1,0.3h0l0.1-0.3l1.4-6.4h1.8l-2.4,8.5h-1.7l-2.4-8.5h1.8L985.3,333.4z"/>
	<path class="st4" d="M993.4,330.7h-1.6v-1.5h1.6V330.7z M993.4,335.6h-1.6v-1.5h1.6V335.6z"/>
	<path class="st4" d="M1000.8,335.6h-1.7v-6.8l-1.6,0v-1.2l3.2-0.6V335.6z"/>
	<path class="st4" d="M1005.4,334.4c0.3,0,0.6-0.2,0.8-0.5s0.3-0.8,0.3-1.3v-0.3c-0.2,0.2-0.3,0.4-0.5,0.5s-0.4,0.2-0.7,0.2
		c-0.7,0-1.2-0.3-1.6-0.8s-0.6-1.2-0.6-2.1c0-0.9,0.2-1.6,0.7-2.2s1.1-0.9,1.8-0.9c0.7,0,1.4,0.3,1.8,0.9s0.7,1.4,0.7,2.5v2.1
		c0,1-0.3,1.8-0.8,2.4s-1.2,0.9-2,0.9c-0.2,0-0.5,0-0.8-0.1s-0.5-0.2-0.8-0.3l0.2-1.2c0.2,0.1,0.4,0.2,0.6,0.2
		S1005.1,334.4,1005.4,334.4z M1005.7,331.6c0.2,0,0.4,0,0.5-0.1s0.3-0.2,0.4-0.4v-1c0-0.6-0.1-1.1-0.2-1.4s-0.4-0.5-0.6-0.5h0
		c-0.2,0-0.4,0.1-0.6,0.5s-0.2,0.7-0.2,1.2c0,0.5,0.1,0.9,0.2,1.2S1005.4,331.6,1005.7,331.6z"/>
	<path class="st4" d="M1009.4,331.8l0.4-4.8h4.2v1.4h-2.8l-0.2,2c0.1-0.1,0.3-0.2,0.5-0.3s0.4-0.1,0.6-0.1c0.7,0,1.3,0.2,1.6,0.7
		s0.6,1.2,0.6,2.1c0,0.8-0.2,1.5-0.6,2s-1,0.8-1.8,0.8c-0.7,0-1.3-0.2-1.8-0.7s-0.7-1-0.7-1.8l0,0l1.6-0.1c0,0.4,0.1,0.7,0.2,0.9
		s0.4,0.3,0.6,0.3c0.3,0,0.5-0.1,0.6-0.4s0.2-0.6,0.2-1.1c0-0.5-0.1-0.9-0.2-1.2s-0.4-0.4-0.7-0.4c-0.2,0-0.4,0.1-0.5,0.2
		s-0.2,0.3-0.3,0.5L1009.4,331.8z"/>
	<path class="st4" d="M1020.6,335.6V327h2.5c0.9,0,1.6,0.2,2.1,0.6s0.7,1,0.7,1.7c0,0.4-0.1,0.8-0.3,1.1s-0.4,0.5-0.8,0.7
		c0.4,0.1,0.8,0.3,1,0.7s0.3,0.8,0.3,1.2c0,0.8-0.2,1.4-0.7,1.9s-1.1,0.6-2,0.6H1020.6z M1022.3,330.6h0.9c0.3,0,0.6-0.1,0.8-0.3
		c0.2-0.2,0.3-0.5,0.3-0.8c0-0.4-0.1-0.7-0.3-0.9c-0.2-0.2-0.5-0.3-0.8-0.3h-0.8V330.6z M1022.3,331.8v2.4h1.2
		c0.4,0,0.6-0.1,0.8-0.3s0.3-0.5,0.3-0.9c0-0.4-0.1-0.7-0.2-0.9s-0.4-0.3-0.7-0.3H1022.3z"/>
	<path class="st4" d="M1031.3,330.7h-1.6v-1.5h1.6V330.7z M1031.3,335.6h-1.6v-1.5h1.6V335.6z"/>
	<path class="st4" d="M1036.7,330.6h0.8c0.3,0,0.5-0.1,0.7-0.3c0.1-0.2,0.2-0.5,0.2-0.9c0-0.3-0.1-0.6-0.2-0.8
		c-0.1-0.2-0.4-0.3-0.6-0.3c-0.2,0-0.4,0.1-0.6,0.3c-0.2,0.2-0.2,0.4-0.2,0.7h-1.6l0,0c0-0.7,0.2-1.2,0.7-1.7c0.5-0.4,1-0.6,1.7-0.6
		c0.8,0,1.4,0.2,1.9,0.6s0.7,1,0.7,1.8c0,0.4-0.1,0.7-0.3,1.1s-0.5,0.6-0.8,0.8c0.4,0.2,0.7,0.4,0.9,0.8s0.3,0.8,0.3,1.2
		c0,0.8-0.2,1.4-0.7,1.8s-1.1,0.7-1.9,0.7c-0.7,0-1.3-0.2-1.8-0.6s-0.7-1-0.7-1.8l0,0h1.6c0,0.3,0.1,0.6,0.3,0.8s0.4,0.3,0.6,0.3
		c0.3,0,0.5-0.1,0.7-0.3s0.3-0.5,0.3-0.9c0-0.5-0.1-0.8-0.2-1s-0.4-0.3-0.7-0.3h-0.8V330.6z"/>
	<path class="st4" d="M1043.3,334.4c0.3,0,0.6-0.2,0.8-0.5s0.3-0.8,0.3-1.3v-0.3c-0.2,0.2-0.3,0.4-0.5,0.5s-0.4,0.2-0.7,0.2
		c-0.7,0-1.2-0.3-1.6-0.8s-0.6-1.2-0.6-2.1c0-0.9,0.2-1.6,0.7-2.2s1.1-0.9,1.8-0.9c0.7,0,1.4,0.3,1.8,0.9s0.7,1.4,0.7,2.5v2.1
		c0,1-0.3,1.8-0.8,2.4s-1.2,0.9-2,0.9c-0.2,0-0.5,0-0.8-0.1s-0.5-0.2-0.8-0.3l0.2-1.2c0.2,0.1,0.4,0.2,0.6,0.2
		S1043,334.4,1043.3,334.4z M1043.5,331.6c0.2,0,0.4,0,0.5-0.1s0.3-0.2,0.4-0.4v-1c0-0.6-0.1-1.1-0.2-1.4s-0.4-0.5-0.6-0.5h0
		c-0.2,0-0.4,0.1-0.6,0.5s-0.2,0.7-0.2,1.2c0,0.5,0.1,0.9,0.2,1.2S1043.3,331.6,1043.5,331.6z"/>
</g>
<g>
	<path class="st4" d="M950.1,387.3L950.1,387.3c0,1-0.2,1.7-0.7,2.2s-1.1,0.7-2,0.7s-1.6-0.3-2.1-0.8s-0.8-1.3-0.8-2.3v-2.5
		c0-1,0.3-1.8,0.8-2.3s1.2-0.8,2-0.8c0.9,0,1.6,0.2,2.1,0.7s0.7,1.2,0.7,2.2l0,0h-1.6c0-0.6-0.1-1-0.2-1.2s-0.5-0.4-0.9-0.4
		c-0.4,0-0.7,0.1-0.9,0.4c-0.2,0.3-0.3,0.7-0.3,1.3v2.6c0,0.6,0.1,1,0.3,1.3c0.2,0.3,0.5,0.4,0.9,0.4c0.4,0,0.7-0.1,0.8-0.3
		s0.2-0.6,0.2-1.2H950.1z"/>
	<path class="st4" d="M955.1,385.2h-1.6v-1.5h1.6V385.2z M955.1,390h-1.6v-1.5h1.6V390z"/>
	<path class="st4" d="M963.8,383.7c0,0.4-0.1,0.8-0.3,1.1s-0.5,0.6-0.8,0.8c0.4,0.2,0.7,0.5,0.9,0.8s0.3,0.8,0.3,1.2
		c0,0.8-0.2,1.4-0.7,1.8s-1.1,0.6-1.8,0.6s-1.3-0.2-1.8-0.6s-0.7-1-0.7-1.8c0-0.5,0.1-0.9,0.3-1.2s0.5-0.6,0.9-0.8
		c-0.3-0.2-0.6-0.4-0.8-0.8s-0.3-0.7-0.3-1.1c0-0.8,0.2-1.3,0.6-1.8s1-0.6,1.7-0.6s1.3,0.2,1.7,0.6S963.8,383,963.8,383.7z
		 M962.3,387.5c0-0.4-0.1-0.7-0.2-0.9s-0.4-0.3-0.6-0.3c-0.3,0-0.5,0.1-0.6,0.3s-0.2,0.5-0.2,0.9c0,0.4,0.1,0.7,0.2,0.9
		s0.4,0.3,0.6,0.3c0.3,0,0.5-0.1,0.6-0.3S962.3,387.9,962.3,387.5z M962.2,383.8c0-0.3-0.1-0.6-0.2-0.8c-0.1-0.2-0.3-0.3-0.5-0.3
		s-0.4,0.1-0.5,0.3c-0.1,0.2-0.2,0.5-0.2,0.8c0,0.4,0.1,0.6,0.2,0.8c0.1,0.2,0.3,0.3,0.5,0.3s0.4-0.1,0.5-0.3
		C962.1,384.5,962.2,384.2,962.2,383.8z"/>
	<path class="st4" d="M970,382.8c-0.8,1-1.3,1.9-1.5,2.9s-0.4,2.1-0.5,3.5l-0.1,0.8h-1.7l0.1-0.8c0.1-1.3,0.3-2.4,0.7-3.5
		c0.3-1.1,0.8-2,1.5-2.9h-3.6v-1.3h5.2V382.8z"/>
	<path class="st4" d="M978.5,381.5l1.5,6.3h0l1.5-6.3h2.2v8.5h-1.7v-2.5l0.1-3.3l0,0l-1.6,5.8h-1.1l-1.6-5.8l0,0l0.1,3.3v2.5h-1.7
		v-8.5H978.5z"/>
	<path class="st4" d="M988.5,385.2h-1.6v-1.5h1.6V385.2z M988.5,390h-1.6v-1.5h1.6V390z"/>
	<path class="st4" d="M997.4,382.8c-0.8,1-1.3,1.9-1.5,2.9s-0.4,2.1-0.5,3.5l-0.1,0.8h-1.7l0.1-0.8c0.1-1.3,0.3-2.4,0.7-3.5
		c0.3-1.1,0.8-2,1.5-2.9h-3.6v-1.3h5.2V382.8z"/>
	<path class="st4" d="M1003.4,390h-5v-1.1l2.3-2.9c0.3-0.4,0.5-0.8,0.7-1.1s0.2-0.6,0.2-0.9c0-0.4-0.1-0.7-0.2-0.9
		c-0.1-0.2-0.3-0.3-0.6-0.3c-0.3,0-0.5,0.1-0.6,0.4s-0.2,0.6-0.2,1.1h-1.6l0,0c0-0.8,0.2-1.4,0.7-2s1.1-0.8,1.8-0.8
		c0.8,0,1.4,0.2,1.8,0.7s0.7,1.1,0.7,1.9c0,0.5-0.1,1-0.4,1.5s-0.7,1-1.2,1.7l-1.1,1.6h2.9V390z"/>
	<path class="st4" d="M1012.7,381.5h1.7v5.9c0,0.8-0.2,1.5-0.7,2s-1.1,0.7-1.8,0.7c-0.8,0-1.4-0.2-1.8-0.7s-0.7-1.1-0.7-1.9l0,0h1.6
		c0,0.4,0.1,0.8,0.2,1s0.4,0.3,0.6,0.3c0.2,0,0.4-0.1,0.6-0.4s0.2-0.6,0.2-1V381.5z"/>
	<path class="st4" d="M1019.7,385.2h-1.6v-1.5h1.6V385.2z M1019.7,390h-1.6v-1.5h1.6V390z"/>
	<path class="st4" d="M1028.6,382.8c-0.8,1-1.3,1.9-1.5,2.9s-0.4,2.1-0.5,3.5l-0.1,0.8h-1.7l0.1-0.8c0.1-1.3,0.3-2.4,0.7-3.5
		c0.3-1.1,0.8-2,1.5-2.9h-3.6v-1.3h5.2V382.8z"/>
	<path class="st4" d="M1040.9,390h-1.7l-2.6-5.5l0,0v5.4h-1.7v-8.5h1.7l2.6,5.4l0,0v-5.4h1.7V390z"/>
	<path class="st4" d="M1046.2,385.2h-1.6v-1.5h1.6V385.2z M1046.2,390h-1.6v-1.5h1.6V390z"/>
	<path class="st4" d="M1053.6,390h-1.7v-6.8l-1.6,0V382l3.2-0.6V390z"/>
	<path class="st4" d="M946.4,401v3.4h-1.7v-8.5h2.8c0.8,0,1.5,0.2,2,0.7s0.7,1.1,0.7,1.8c0,0.4-0.1,0.8-0.3,1.2s-0.5,0.6-0.9,0.8
		c0.4,0.1,0.8,0.4,0.9,0.7s0.3,0.8,0.3,1.3v0.6c0,0.2,0,0.5,0.1,0.8s0.2,0.5,0.3,0.6v0.1h-1.7c-0.1-0.1-0.2-0.3-0.3-0.6
		s-0.1-0.6-0.1-0.9v-0.6c0-0.4-0.1-0.8-0.3-1s-0.4-0.4-0.7-0.4H946.4z M946.4,399.7h1.1c0.3,0,0.6-0.1,0.8-0.3s0.3-0.5,0.3-0.9
		c0-0.4-0.1-0.7-0.3-0.9s-0.4-0.3-0.8-0.3h-1.1V399.7z"/>
	<path class="st4" d="M955.5,399.6h-1.6v-1.5h1.6V399.6z M955.5,404.4h-1.6v-1.5h1.6V404.4z"/>
	<path class="st4" d="M959.6,400.6l0.4-4.8h4.2v1.4h-2.8l-0.2,2c0.1-0.1,0.3-0.2,0.5-0.3s0.4-0.1,0.6-0.1c0.7,0,1.3,0.2,1.6,0.7
		s0.6,1.2,0.6,2.1c0,0.8-0.2,1.5-0.6,2s-1,0.8-1.8,0.8c-0.7,0-1.3-0.2-1.8-0.7s-0.7-1-0.7-1.8l0,0l1.6-0.1c0,0.4,0.1,0.7,0.2,0.9
		s0.4,0.3,0.6,0.3c0.3,0,0.5-0.1,0.6-0.4s0.2-0.6,0.2-1.1c0-0.5-0.1-0.9-0.2-1.2s-0.4-0.4-0.7-0.4c-0.2,0-0.4,0.1-0.5,0.2
		s-0.2,0.3-0.3,0.5L959.6,400.6z"/>
	<path class="st4" d="M967.5,403.2c0.3,0,0.6-0.2,0.8-0.5s0.3-0.8,0.3-1.3V401c-0.2,0.2-0.3,0.4-0.5,0.5s-0.4,0.2-0.7,0.2
		c-0.7,0-1.2-0.3-1.6-0.8s-0.6-1.2-0.6-2.1c0-0.9,0.2-1.6,0.7-2.2s1.1-0.9,1.8-0.9c0.7,0,1.4,0.3,1.8,0.9s0.7,1.4,0.7,2.5v2.1
		c0,1-0.3,1.8-0.8,2.4s-1.2,0.9-2,0.9c-0.2,0-0.5,0-0.8-0.1s-0.5-0.2-0.8-0.3l0.2-1.2c0.2,0.1,0.4,0.2,0.6,0.2
		S967.3,403.2,967.5,403.2z M967.8,400.5c0.2,0,0.4,0,0.5-0.1s0.3-0.2,0.4-0.4v-1c0-0.6-0.1-1.1-0.2-1.4s-0.4-0.5-0.6-0.5h0
		c-0.2,0-0.4,0.1-0.6,0.5s-0.2,0.7-0.2,1.2c0,0.5,0.1,0.9,0.2,1.2S967.5,400.5,967.8,400.5z"/>
	<path class="st4" d="M979.4,402.2l0.1,0.3h0l0.1-0.3l1.4-6.4h1.8l-2.4,8.5h-1.7l-2.4-8.5h1.8L979.4,402.2z"/>
	<path class="st4" d="M987.4,399.6h-1.6v-1.5h1.6V399.6z M987.4,404.4h-1.6v-1.5h1.6V404.4z"/>
	<path class="st4" d="M996.1,398.1c0,0.4-0.1,0.8-0.3,1.1s-0.5,0.6-0.8,0.8c0.4,0.2,0.7,0.5,0.9,0.8s0.3,0.8,0.3,1.2
		c0,0.8-0.2,1.4-0.7,1.8s-1.1,0.6-1.8,0.6s-1.3-0.2-1.8-0.6s-0.7-1-0.7-1.8c0-0.5,0.1-0.9,0.3-1.2s0.5-0.6,0.9-0.8
		c-0.3-0.2-0.6-0.4-0.8-0.8s-0.3-0.7-0.3-1.1c0-0.8,0.2-1.3,0.6-1.8s1-0.6,1.7-0.6s1.3,0.2,1.7,0.6S996.1,397.4,996.1,398.1z
		 M994.6,401.9c0-0.4-0.1-0.7-0.2-0.9s-0.4-0.3-0.6-0.3c-0.3,0-0.5,0.1-0.6,0.3s-0.2,0.5-0.2,0.9c0,0.4,0.1,0.7,0.2,0.9
		s0.4,0.3,0.6,0.3c0.3,0,0.5-0.1,0.6-0.3S994.6,402.3,994.6,401.9z M994.5,398.2c0-0.3-0.1-0.6-0.2-0.8c-0.1-0.2-0.3-0.3-0.5-0.3
		s-0.4,0.1-0.5,0.3c-0.1,0.2-0.2,0.5-0.2,0.8c0,0.4,0.1,0.6,0.2,0.8c0.1,0.2,0.3,0.3,0.5,0.3s0.4-0.1,0.5-0.3
		C994.4,398.9,994.5,398.6,994.5,398.2z"/>
	<path class="st4" d="M1002.2,401.1c0,1.1-0.2,2-0.7,2.6s-1.1,0.9-1.8,0.9c-0.8,0-1.4-0.3-1.8-0.9s-0.7-1.5-0.7-2.6v-1.8
		c0-1.1,0.2-2,0.7-2.6s1.1-0.9,1.8-0.9s1.4,0.3,1.8,0.9s0.7,1.5,0.7,2.6V401.1z M1000.6,399.1c0-0.7-0.1-1.2-0.2-1.5
		s-0.3-0.5-0.6-0.4h0c-0.3,0-0.5,0.1-0.6,0.4s-0.2,0.8-0.2,1.5v2.1c0,0.7,0.1,1.2,0.2,1.5s0.3,0.5,0.6,0.4h0c0.3,0,0.5-0.1,0.6-0.4
		s0.2-0.8,0.2-1.5V399.1z"/>
	<path class="st4" d="M1008.6,404.4v-8.5h2.5c0.9,0,1.6,0.2,2.1,0.6s0.7,1,0.7,1.7c0,0.4-0.1,0.8-0.3,1.1s-0.4,0.5-0.8,0.7
		c0.4,0.1,0.8,0.3,1,0.7s0.3,0.8,0.3,1.2c0,0.8-0.2,1.4-0.7,1.9s-1.1,0.6-2,0.6H1008.6z M1010.3,399.5h0.9c0.3,0,0.6-0.1,0.8-0.3
		c0.2-0.2,0.3-0.5,0.3-0.8c0-0.4-0.1-0.7-0.3-0.9c-0.2-0.2-0.5-0.3-0.8-0.3h-0.8V399.5z M1010.3,400.6v2.4h1.2
		c0.4,0,0.6-0.1,0.8-0.3s0.3-0.5,0.3-0.9c0-0.4-0.1-0.7-0.2-0.9s-0.4-0.3-0.7-0.3H1010.3z"/>
	<path class="st4" d="M1019.3,399.6h-1.6v-1.5h1.6V399.6z M1019.3,404.4h-1.6v-1.5h1.6V404.4z"/>
	<path class="st4" d="M1026.7,404.4h-1.7v-6.8l-1.6,0v-1.2l3.2-0.6V404.4z"/>
	<path class="st4" d="M1029.3,400.6l0.4-4.8h4.2v1.4h-2.8l-0.2,2c0.1-0.1,0.3-0.2,0.5-0.3s0.4-0.1,0.6-0.1c0.7,0,1.3,0.2,1.6,0.7
		s0.6,1.2,0.6,2.1c0,0.8-0.2,1.5-0.6,2s-1,0.8-1.8,0.8c-0.7,0-1.3-0.2-1.8-0.7s-0.7-1-0.7-1.8l0,0l1.6-0.1c0,0.4,0.1,0.7,0.2,0.9
		s0.4,0.3,0.6,0.3c0.3,0,0.5-0.1,0.6-0.4s0.2-0.6,0.2-1.1c0-0.5-0.1-0.9-0.2-1.2s-0.4-0.4-0.7-0.4c-0.2,0-0.4,0.1-0.5,0.2
		s-0.2,0.3-0.3,0.5L1029.3,400.6z"/>
	<path class="st4" d="M1040.2,404.4h-5v-1.1l2.3-2.9c0.3-0.4,0.5-0.8,0.7-1.1s0.2-0.6,0.2-0.9c0-0.4-0.1-0.7-0.2-0.9
		c-0.1-0.2-0.3-0.3-0.6-0.3c-0.3,0-0.5,0.1-0.6,0.4s-0.2,0.6-0.2,1.1h-1.6l0,0c0-0.8,0.2-1.4,0.7-2s1.1-0.8,1.8-0.8
		c0.8,0,1.4,0.2,1.8,0.7s0.7,1.1,0.7,1.9c0,0.5-0.1,1-0.4,1.5s-0.7,1-1.2,1.7l-1.1,1.6h2.9V404.4z"/>
</g>
<rect x="1346.9" y="115.9" class="st5" width="28.2" height="28.2"/>
</svg>
