<?xml version="1.0" encoding="UTF-8" standalone="no"?>
<!-- Created with Inkscape (http://www.inkscape.org/) -->

<svg
   version="1.1"
   id="svg2"
   xml:space="preserve"
   width="652.70667"
   height="245.65733"
   viewBox="0 0 652.70667 245.65733"
   sodipodi:docname="hcurien-couleur.svg"
   inkscape:version="1.1.2 (0a00cf5339, 2022-02-04)"
   xmlns:inkscape="http://www.inkscape.org/namespaces/inkscape"
   xmlns:sodipodi="http://sodipodi.sourceforge.net/DTD/sodipodi-0.dtd"
   xmlns="http://www.w3.org/2000/svg"
   xmlns:svg="http://www.w3.org/2000/svg"><defs
     id="defs6"><clipPath
       clipPathUnits="userSpaceOnUse"
       id="clipPath18"><path
         d="M 0,184.243 H 489.53 V 0 H 0 Z"
         id="path16" /></clipPath></defs><sodipodi:namedview
     id="namedview4"
     pagecolor="#ffffff"
     bordercolor="#666666"
     borderopacity="1.0"
     inkscape:pageshadow="2"
     inkscape:pageopacity="0.0"
     inkscape:pagecheckerboard="0"
     showgrid="false"
     inkscape:zoom="1.049476"
     inkscape:cx="295.86193"
     inkscape:cy="373.51973"
     inkscape:window-width="1920"
     inkscape:window-height="1131"
     inkscape:window-x="1920"
     inkscape:window-y="0"
     inkscape:window-maximized="1"
     inkscape:current-layer="g8" /><g
     id="g8"
     inkscape:groupmode="layer"
     inkscape:label="hcurien-couleur"
     transform="matrix(1.3333333,0,0,-1.3333333,0,245.65733)"><path
       d="m 129.57,118.847 h 12.15 v -6.649 h -12.15 z m -6.813,23.315 h 7.635 v -29.964 h -7.635 z"
       style="fill:#00365f;fill-opacity:1;fill-rule:nonzero;stroke:none"
       id="path10" /><g
       id="g12"><g
         id="g14"
         clip-path="url(#clipPath18)"><g
           id="g20"
           transform="translate(159.2065,112.1975)"><path
             d="m 0,0 v 6.649 h -1.231 v 7.101 c 0,1.041 -0.241,1.813 -0.719,2.32 -0.479,0.506 -1.266,0.759 -2.36,0.759 -0.52,0 -1.287,-0.014 -2.299,-0.041 -1.013,-0.027 -2.079,-0.068 -3.202,-0.123 -1.122,-0.055 -2.148,-0.11 -3.078,-0.164 v 6.239 c 0.657,0.054 1.437,0.109 2.34,0.164 0.903,0.054 1.84,0.095 2.811,0.123 0.971,0.027 1.868,0.041 2.689,0.041 2.325,0 4.303,-0.342 5.931,-1.026 1.628,-0.684 2.873,-1.71 3.736,-3.079 0.861,-1.368 1.293,-3.106 1.293,-5.213 L 5.911,0 Z m -7.184,-0.575 c -1.587,0 -2.996,0.288 -4.227,0.862 -1.232,0.575 -2.196,1.402 -2.894,2.484 -0.698,1.081 -1.047,2.374 -1.047,3.878 0,1.697 0.452,3.072 1.355,4.126 0.903,1.053 2.148,1.827 3.735,2.319 1.587,0.492 3.407,0.739 5.459,0.739 h 4.392 V 9.974 h -4.392 c -1.012,0 -1.792,-0.253 -2.34,-0.759 -0.547,-0.507 -0.82,-1.184 -0.82,-2.032 0,-0.821 0.273,-1.485 0.82,-1.991 0.548,-0.506 1.328,-0.759 2.34,-0.759 0.657,0 1.238,0.116 1.745,0.349 0.506,0.232 0.923,0.636 1.252,1.211 0.328,0.574 0.519,1.368 0.575,2.381 L 0.492,6.731 C 0.355,5.172 -0.021,3.852 -0.636,2.771 -1.252,1.689 -2.101,0.862 -3.181,0.287 -4.263,-0.287 -5.597,-0.575 -7.184,-0.575"
             style="fill:#00365f;fill-opacity:1;fill-rule:nonzero;stroke:none"
             id="path22" /></g><g
           id="g24"
           transform="translate(182.6025,117.6155)"><path
             d="M 0,0 C 0.985,0 1.854,0.253 2.606,0.76 3.358,1.266 3.947,1.97 4.371,2.874 4.795,3.776 5.007,4.803 5.007,5.952 5.007,7.128 4.795,8.148 4.371,9.01 3.947,9.872 3.366,10.542 2.627,11.021 1.888,11.499 1.012,11.74 0,11.74 -0.903,11.74 -1.745,11.534 -2.524,11.124 -3.305,10.713 -3.941,10.111 -4.433,9.318 -4.926,8.524 -5.172,7.566 -5.172,6.444 V 5.049 c 0,-1.067 0.26,-1.977 0.78,-2.73 0.519,-0.753 1.176,-1.327 1.97,-1.724 C -1.628,0.198 -0.821,0 0,0 m 2.134,-6.157 c -1.861,0 -3.482,0.384 -4.864,1.15 -1.382,0.765 -2.462,1.888 -3.243,3.365 -0.779,1.478 -1.197,3.284 -1.252,5.418 h 0.657 v -9.194 h -5.911 v 29.964 h 7.471 V 9.113 L -6.65,7.471 c 0.082,2.216 0.506,4.104 1.273,5.664 0.766,1.56 1.826,2.743 3.181,3.551 1.354,0.807 2.921,1.21 4.699,1.21 1.533,0 2.915,-0.28 4.146,-0.841 1.232,-0.561 2.278,-1.354 3.141,-2.381 0.861,-1.026 1.524,-2.237 1.99,-3.632 0.465,-1.396 0.698,-2.929 0.698,-4.598 V 5.459 C 12.478,3.79 12.245,2.25 11.78,0.842 11.314,-0.568 10.631,-1.799 9.728,-2.853 8.825,-3.906 7.737,-4.72 6.465,-5.295 5.192,-5.87 3.749,-6.157 2.134,-6.157"
             style="fill:#00365f;fill-opacity:1;fill-rule:nonzero;stroke:none"
             id="path26" /></g><g
           id="g28"
           transform="translate(210.4731,117.6155)"><path
             d="m 0,0 c 1.149,0 2.1,0.247 2.853,0.739 0.752,0.492 1.319,1.183 1.703,2.073 0.383,0.889 0.575,1.895 0.575,3.017 0,1.176 -0.199,2.209 -0.595,3.099 -0.397,0.889 -0.979,1.593 -1.745,2.114 -0.767,0.52 -1.697,0.78 -2.791,0.78 -1.095,0 -2.025,-0.26 -2.792,-0.78 C -3.558,10.521 -4.14,9.817 -4.536,8.928 -4.933,8.038 -5.131,7.005 -5.131,5.829 -5.131,4.707 -4.94,3.701 -4.556,2.812 -4.173,1.922 -3.599,1.231 -2.833,0.739 -2.066,0.247 -1.123,0 0,0 m 0,-6.239 c -1.998,0 -3.776,0.302 -5.336,0.903 -1.56,0.602 -2.88,1.437 -3.961,2.504 -1.081,1.067 -1.903,2.299 -2.463,3.694 -0.561,1.396 -0.842,2.887 -0.842,4.474 v 0.985 c 0,1.642 0.294,3.175 0.883,4.597 0.588,1.423 1.429,2.669 2.524,3.736 1.094,1.067 2.422,1.902 3.982,2.504 1.56,0.601 3.297,0.903 5.213,0.903 1.942,0 3.687,-0.302 5.233,-0.903 1.546,-0.602 2.867,-1.437 3.961,-2.504 1.095,-1.067 1.936,-2.313 2.525,-3.736 0.588,-1.422 0.882,-2.955 0.882,-4.597 V 5.336 C 12.601,3.749 12.32,2.258 11.76,0.862 11.199,-0.533 10.377,-1.765 9.297,-2.832 8.216,-3.899 6.896,-4.734 5.336,-5.336 3.776,-5.937 1.997,-6.239 0,-6.239"
             style="fill:#00365f;fill-opacity:1;fill-rule:nonzero;stroke:none"
             id="path30" /></g><g
           id="g32"
           transform="translate(227.1782,112.1975)"><path
             d="M 0,0 V 22.658 H 5.911 V 12.807 H 5.829 c 0,3.173 0.663,5.664 1.99,7.47 1.327,1.806 3.236,2.709 5.726,2.709 h 0.904 v -6.403 h -1.724 c -1.67,0 -2.963,-0.452 -3.879,-1.354 -0.917,-0.904 -1.375,-2.204 -1.375,-3.9 V 0 Z"
             style="fill:#00365f;fill-opacity:1;fill-rule:nonzero;stroke:none"
             id="path34" /></g><g
           id="g36"
           transform="translate(258.1279,112.1975)"><path
             d="m 0,0 v 6.649 h -1.231 v 7.101 c 0,1.041 -0.241,1.813 -0.719,2.32 -0.479,0.506 -1.266,0.759 -2.36,0.759 -0.52,0 -1.287,-0.014 -2.299,-0.041 -1.013,-0.027 -2.079,-0.068 -3.202,-0.123 -1.122,-0.055 -2.148,-0.11 -3.078,-0.164 v 6.239 c 0.657,0.054 1.437,0.109 2.34,0.164 0.903,0.054 1.84,0.095 2.811,0.123 0.971,0.027 1.868,0.041 2.689,0.041 2.325,0 4.303,-0.342 5.931,-1.026 1.628,-0.684 2.873,-1.71 3.736,-3.079 0.861,-1.368 1.293,-3.106 1.293,-5.213 L 5.911,0 Z m -7.184,-0.575 c -1.587,0 -2.996,0.288 -4.227,0.862 -1.232,0.575 -2.196,1.402 -2.894,2.484 -0.698,1.081 -1.047,2.374 -1.047,3.878 0,1.697 0.452,3.072 1.355,4.126 0.903,1.053 2.148,1.827 3.735,2.319 1.587,0.492 3.407,0.739 5.459,0.739 h 4.392 V 9.974 h -4.392 c -1.012,0 -1.792,-0.253 -2.34,-0.759 -0.547,-0.507 -0.82,-1.184 -0.82,-2.032 0,-0.821 0.273,-1.485 0.82,-1.991 0.548,-0.506 1.328,-0.759 2.34,-0.759 0.657,0 1.238,0.116 1.745,0.349 0.506,0.232 0.923,0.636 1.252,1.211 0.328,0.574 0.519,1.368 0.575,2.381 L 0.492,6.731 C 0.355,5.172 -0.021,3.852 -0.636,2.771 -1.252,1.689 -2.101,0.862 -3.181,0.287 -4.263,-0.287 -5.597,-0.575 -7.184,-0.575"
             style="fill:#00365f;fill-opacity:1;fill-rule:nonzero;stroke:none"
             id="path38" /></g><g
           id="g40"
           transform="translate(279.8408,111.8689)"><path
             d="m 0,0 c -2.463,0 -4.427,0.302 -5.89,0.903 -1.464,0.602 -2.525,1.601 -3.181,2.997 -0.657,1.395 -0.986,3.284 -0.986,5.664 l 0.041,19.333 H -3.12 L -3.161,9.359 c 0,-1.013 0.267,-1.786 0.801,-2.319 0.533,-0.534 1.306,-0.801 2.319,-0.801 h 3.12 V 0 Z M -13.34,22.986 H 3.079 V 17.568 H -13.34 Z"
             style="fill:#00365f;fill-opacity:1;fill-rule:nonzero;stroke:none"
             id="path42" /></g><g
           id="g44"
           transform="translate(298.1474,117.6155)"><path
             d="m 0,0 c 1.149,0 2.1,0.247 2.853,0.739 0.752,0.492 1.319,1.183 1.703,2.073 0.383,0.889 0.575,1.895 0.575,3.017 0,1.176 -0.199,2.209 -0.595,3.099 -0.397,0.889 -0.979,1.593 -1.745,2.114 -0.767,0.52 -1.697,0.78 -2.791,0.78 -1.095,0 -2.025,-0.26 -2.792,-0.78 C -3.558,10.521 -4.14,9.817 -4.536,8.928 -4.933,8.038 -5.131,7.005 -5.131,5.829 -5.131,4.707 -4.94,3.701 -4.556,2.812 -4.173,1.922 -3.599,1.231 -2.833,0.739 -2.066,0.247 -1.123,0 0,0 m 0,-6.239 c -1.998,0 -3.776,0.302 -5.336,0.903 -1.56,0.602 -2.88,1.437 -3.961,2.504 -1.081,1.067 -1.903,2.299 -2.463,3.694 -0.561,1.396 -0.842,2.887 -0.842,4.474 v 0.985 c 0,1.642 0.294,3.175 0.883,4.597 0.588,1.423 1.429,2.669 2.524,3.736 1.094,1.067 2.422,1.902 3.982,2.504 1.56,0.601 3.297,0.903 5.213,0.903 1.942,0 3.687,-0.302 5.233,-0.903 1.546,-0.602 2.867,-1.437 3.961,-2.504 1.095,-1.067 1.936,-2.313 2.525,-3.736 0.588,-1.422 0.882,-2.955 0.882,-4.597 V 5.336 C 12.601,3.749 12.32,2.258 11.76,0.862 11.199,-0.533 10.377,-1.765 9.297,-2.832 8.216,-3.899 6.896,-4.734 5.336,-5.336 3.776,-5.937 1.997,-6.239 0,-6.239"
             style="fill:#00365f;fill-opacity:1;fill-rule:nonzero;stroke:none"
             id="path46" /></g><path
           d="m 315.92,134.855 h 7.47 v -22.658 h -7.47 z m 3.079,1.806 c -1.369,0 -2.375,0.349 -3.017,1.047 -0.643,0.698 -0.965,1.594 -0.965,2.689 0,1.094 0.322,1.99 0.965,2.688 0.642,0.698 1.635,1.047 2.976,1.047 1.368,0 2.366,-0.349 2.996,-1.047 0.629,-0.698 0.944,-1.594 0.944,-2.688 0,-1.095 -0.315,-1.991 -0.944,-2.689 -0.63,-0.698 -1.615,-1.047 -2.955,-1.047 m -5.952,-1.806 h 10.344 v -5.418 h -10.344 z"
           style="fill:#00365f;fill-opacity:1;fill-rule:nonzero;stroke:none"
           id="path48" /><g
           id="g50"
           transform="translate(328.8911,112.1975)"><path
             d="M 0,0 V 22.658 H 5.911 V 12.807 H 5.829 c 0,3.173 0.663,5.664 1.99,7.47 1.327,1.806 3.236,2.709 5.726,2.709 h 0.904 v -6.403 h -1.724 c -1.67,0 -2.963,-0.452 -3.879,-1.354 -0.917,-0.904 -1.375,-2.204 -1.375,-3.9 V 0 Z"
             style="fill:#00365f;fill-opacity:1;fill-rule:nonzero;stroke:none"
             id="path52" /></g><g
           id="g54"
           transform="translate(356.8437,111.3767)"><path
             d="m 0,0 c -1.916,0 -3.612,0.328 -5.09,0.985 -1.477,0.657 -2.723,1.546 -3.735,2.668 -1.013,1.122 -1.786,2.381 -2.32,3.776 -0.533,1.396 -0.8,2.833 -0.8,4.31 v 0.821 c 0,1.532 0.267,3.003 0.8,4.413 0.534,1.409 1.3,2.661 2.299,3.756 0.999,1.094 2.223,1.963 3.674,2.606 1.45,0.643 3.092,0.964 4.925,0.964 2.436,0 4.501,-0.547 6.199,-1.641 1.696,-1.095 2.996,-2.539 3.899,-4.331 0.903,-1.792 1.355,-3.742 1.355,-5.849 V 10.097 H -8.825 V 14.12 H 6.896 L 4.31,12.314 c 0,1.286 -0.171,2.374 -0.513,3.263 -0.343,0.889 -0.849,1.566 -1.519,2.032 -0.671,0.465 -1.512,0.698 -2.525,0.698 -0.984,0 -1.84,-0.226 -2.565,-0.678 -0.725,-0.451 -1.279,-1.135 -1.662,-2.052 -0.384,-0.917 -0.575,-2.073 -0.575,-3.468 0,-1.259 0.178,-2.347 0.534,-3.264 C -4.16,7.928 -3.612,7.224 -2.874,6.731 -2.135,6.239 -1.177,5.993 0,5.993 c 1.04,0 1.895,0.177 2.565,0.533 0.67,0.356 1.143,0.835 1.416,1.437 h 6.814 C 10.467,6.43 9.816,5.062 8.845,3.858 7.874,2.654 6.643,1.71 5.151,1.026 3.66,0.342 1.942,0 0,0"
             style="fill:#00365f;fill-opacity:1;fill-rule:nonzero;stroke:none"
             id="path56" /></g><path
           d="m 141.802,100.059 h 7.635 V 70.095 h -7.635 z M 129.078,88.525 h 14.038 v -6.65 h -14.038 z m -6.321,11.534 h 7.635 V 70.095 h -7.635 z"
           style="fill:#eb6012;fill-opacity:1;fill-rule:nonzero;stroke:none"
           id="path58" /><g
           id="g60"
           transform="translate(162.7768,69.3562)"><path
             d="m 0,0 c -2.572,0 -4.563,0.841 -5.972,2.524 -1.41,1.683 -2.114,4.262 -2.114,7.738 v 13.134 h 7.47 v -13.34 c 0,-1.013 0.301,-1.833 0.903,-2.462 0.602,-0.63 1.409,-0.945 2.422,-0.945 1.012,0 1.833,0.315 2.463,0.945 0.629,0.629 0.944,1.477 0.944,2.545 v 13.257 h 7.47 V 0.739 h -5.91 v 9.523 h 0.41 C 8.086,7.936 7.792,6.013 7.204,4.495 6.615,2.976 5.747,1.847 4.597,1.108 3.448,0.369 2.025,0 0.329,0 Z"
             style="fill:#eb6012;fill-opacity:1;fill-rule:nonzero;stroke:none"
             id="path62" /></g><g
           id="g64"
           transform="translate(194.3418,75.5129)"><path
             d="M 0,0 C 0.985,0 1.854,0.253 2.606,0.76 3.358,1.266 3.947,1.97 4.371,2.874 4.795,3.776 5.007,4.803 5.007,5.952 5.007,7.128 4.795,8.148 4.371,9.01 3.947,9.872 3.366,10.542 2.627,11.021 1.888,11.5 1.012,11.74 0,11.74 -0.903,11.74 -1.745,11.534 -2.524,11.124 -3.305,10.713 -3.941,10.111 -4.433,9.318 -4.926,8.524 -5.172,7.566 -5.172,6.444 V 5.049 c 0,-1.067 0.26,-1.977 0.78,-2.73 0.519,-0.753 1.176,-1.327 1.97,-1.724 C -1.628,0.198 -0.821,0 0,0 m 2.134,-6.157 c -1.861,0 -3.482,0.384 -4.864,1.15 -1.382,0.765 -2.462,1.888 -3.243,3.365 -0.779,1.478 -1.197,3.284 -1.252,5.418 h 0.657 v -9.194 h -5.911 v 29.964 h 7.471 V 9.113 L -6.65,7.471 c 0.082,2.216 0.506,4.104 1.273,5.664 0.766,1.56 1.826,2.743 3.181,3.551 1.354,0.807 2.921,1.21 4.699,1.21 1.533,0 2.915,-0.28 4.146,-0.841 1.232,-0.561 2.278,-1.354 3.141,-2.381 0.861,-1.026 1.524,-2.236 1.99,-3.632 0.465,-1.396 0.698,-2.929 0.698,-4.598 V 5.459 C 12.478,3.79 12.245,2.25 11.78,0.842 11.314,-0.568 10.631,-1.799 9.728,-2.853 8.825,-3.906 7.737,-4.72 6.465,-5.295 5.192,-5.87 3.749,-6.157 2.134,-6.157"
             style="fill:#eb6012;fill-opacity:1;fill-rule:nonzero;stroke:none"
             id="path66" /></g><g
           id="g68"
           transform="translate(221.5551,69.2742)"><path
             d="m 0,0 c -1.916,0 -3.612,0.328 -5.09,0.985 -1.477,0.657 -2.723,1.546 -3.735,2.668 -1.013,1.122 -1.786,2.381 -2.32,3.776 -0.533,1.396 -0.8,2.833 -0.8,4.31 v 0.821 c 0,1.532 0.267,3.003 0.8,4.413 0.534,1.409 1.3,2.661 2.299,3.756 0.999,1.094 2.223,1.963 3.674,2.606 1.45,0.643 3.092,0.964 4.925,0.964 2.436,0 4.501,-0.547 6.199,-1.641 1.696,-1.095 2.996,-2.539 3.899,-4.331 0.903,-1.792 1.355,-3.742 1.355,-5.849 V 10.097 H -8.825 V 14.12 H 6.896 L 4.31,12.314 c 0,1.286 -0.171,2.374 -0.513,3.263 -0.343,0.889 -0.849,1.566 -1.519,2.032 -0.671,0.465 -1.512,0.698 -2.525,0.698 -0.984,0 -1.84,-0.226 -2.565,-0.678 -0.725,-0.451 -1.279,-1.135 -1.662,-2.052 -0.384,-0.917 -0.575,-2.073 -0.575,-3.468 0,-1.259 0.178,-2.347 0.534,-3.264 C -4.16,7.928 -3.612,7.224 -2.874,6.731 -2.135,6.239 -1.177,5.993 0,5.993 c 1.04,0 1.895,0.177 2.565,0.533 0.67,0.356 1.143,0.835 1.416,1.437 h 6.814 C 10.467,6.43 9.816,5.062 8.845,3.858 7.874,2.654 6.643,1.71 5.151,1.026 3.66,0.342 1.942,0 0,0"
             style="fill:#eb6012;fill-opacity:1;fill-rule:nonzero;stroke:none"
             id="path70" /></g><g
           id="g72"
           transform="translate(236.7011,70.095)"><path
             d="M 0,0 V 22.658 H 5.911 V 12.807 H 5.829 c 0,3.173 0.663,5.664 1.99,7.47 1.327,1.806 3.236,2.709 5.726,2.709 h 0.904 v -6.403 h -1.724 c -1.67,0 -2.963,-0.452 -3.879,-1.354 -0.917,-0.904 -1.375,-2.204 -1.375,-3.9 V 0 Z"
             style="fill:#eb6012;fill-opacity:1;fill-rule:nonzero;stroke:none"
             id="path74" /></g><g
           id="g76"
           transform="translate(265.4746,69.7663)"><path
             d="m 0,0 c -2.463,0 -4.427,0.302 -5.89,0.903 -1.464,0.602 -2.525,1.601 -3.181,2.997 -0.657,1.395 -0.986,3.284 -0.986,5.664 l 0.041,19.333 H -3.12 L -3.161,9.359 c 0,-1.013 0.267,-1.786 0.801,-2.319 0.533,-0.534 1.306,-0.801 2.319,-0.801 h 3.12 V 0 Z M -13.34,22.986 H 3.079 V 17.568 H -13.34 Z"
             style="fill:#eb6012;fill-opacity:1;fill-rule:nonzero;stroke:none"
             id="path78" /></g><g
           id="g80"
           transform="translate(295.2734,69.2742)"><path
             d="m 0,0 c -2.709,0 -5.035,0.472 -6.978,1.416 -1.943,0.944 -3.544,2.189 -4.802,3.735 -1.259,1.546 -2.19,3.223 -2.791,5.029 -0.603,1.805 -0.904,3.556 -0.904,5.254 v 0.902 c 0,1.889 0.308,3.742 0.924,5.562 0.616,1.82 1.56,3.469 2.832,4.946 1.273,1.478 2.866,2.655 4.782,3.531 1.916,0.875 4.16,1.313 6.732,1.313 2.736,0 5.165,-0.513 7.286,-1.539 2.12,-1.026 3.824,-2.463 5.11,-4.31 1.286,-1.847 2.038,-3.989 2.258,-6.424 H 6.814 c -0.192,1.04 -0.602,1.942 -1.231,2.709 -0.63,0.766 -1.437,1.361 -2.422,1.786 -0.985,0.423 -2.108,0.636 -3.366,0.636 -1.177,0 -2.237,-0.205 -3.181,-0.616 -0.944,-0.41 -1.738,-0.992 -2.381,-1.744 -0.643,-0.753 -1.136,-1.663 -1.478,-2.73 -0.342,-1.067 -0.513,-2.271 -0.513,-3.612 0,-1.341 0.171,-2.545 0.513,-3.612 0.342,-1.067 0.849,-1.984 1.519,-2.751 0.67,-0.766 1.484,-1.348 2.442,-1.744 C -2.326,7.34 -1.231,7.142 0,7.142 c 1.916,0 3.537,0.465 4.864,1.396 1.327,0.93 2.128,2.175 2.402,3.735 H 14.9 C 14.654,10.029 13.901,7.977 12.643,6.116 11.384,4.254 9.688,2.771 7.553,1.662 5.418,0.554 2.9,0 0,0"
             style="fill:#eb6012;fill-opacity:1;fill-rule:nonzero;stroke:none"
             id="path82" /></g><g
           id="g84"
           transform="translate(321.4609,69.3562)"><path
             d="m 0,0 c -2.572,0 -4.563,0.841 -5.972,2.524 -1.41,1.683 -2.114,4.262 -2.114,7.738 v 13.134 h 7.47 v -13.34 c 0,-1.013 0.301,-1.833 0.903,-2.462 0.602,-0.63 1.409,-0.945 2.422,-0.945 1.012,0 1.833,0.315 2.463,0.945 0.629,0.629 0.944,1.477 0.944,2.545 v 13.257 h 7.47 V 0.739 h -5.91 v 9.523 h 0.41 C 8.086,7.936 7.792,6.013 7.204,4.495 6.615,2.976 5.747,1.847 4.597,1.108 3.448,0.369 2.025,0 0.329,0 Z"
             style="fill:#eb6012;fill-opacity:1;fill-rule:nonzero;stroke:none"
             id="path86" /></g><g
           id="g88"
           transform="translate(340.5473,70.095)"><path
             d="M 0,0 V 22.658 H 5.911 V 12.807 H 5.829 c 0,3.173 0.663,5.664 1.99,7.47 1.327,1.806 3.236,2.709 5.726,2.709 h 0.904 v -6.403 h -1.724 c -1.67,0 -2.963,-0.452 -3.879,-1.354 -0.917,-0.904 -1.375,-2.204 -1.375,-3.9 V 0 Z"
             style="fill:#eb6012;fill-opacity:1;fill-rule:nonzero;stroke:none"
             id="path90" /></g><path
           d="m 359.019,92.753 h 7.47 V 70.095 h -7.47 z m 3.078,1.806 c -1.369,0 -2.374,0.349 -3.017,1.047 -0.643,0.697 -0.965,1.593 -0.965,2.688 0,1.094 0.322,1.991 0.965,2.689 0.643,0.697 1.635,1.047 2.976,1.047 1.368,0 2.366,-0.35 2.996,-1.047 0.63,-0.698 0.945,-1.595 0.945,-2.689 0,-1.095 -0.315,-1.991 -0.945,-2.688 -0.63,-0.698 -1.615,-1.047 -2.955,-1.047 m -5.952,-1.806 h 10.344 v -5.418 h -10.344 z"
           style="fill:#eb6012;fill-opacity:1;fill-rule:nonzero;stroke:none"
           id="path92" /><g
           id="g94"
           transform="translate(382.6201,69.2742)"><path
             d="m 0,0 c -1.916,0 -3.612,0.328 -5.09,0.985 -1.477,0.657 -2.723,1.546 -3.735,2.668 -1.013,1.122 -1.786,2.381 -2.32,3.776 -0.533,1.396 -0.8,2.833 -0.8,4.31 v 0.821 c 0,1.532 0.267,3.003 0.8,4.413 0.534,1.409 1.3,2.661 2.299,3.756 0.999,1.094 2.223,1.963 3.674,2.606 1.45,0.643 3.092,0.964 4.925,0.964 2.436,0 4.501,-0.547 6.199,-1.641 1.696,-1.095 2.996,-2.539 3.899,-4.331 0.903,-1.792 1.355,-3.742 1.355,-5.849 V 10.097 H -8.825 V 14.12 H 6.896 L 4.31,12.314 c 0,1.286 -0.171,2.374 -0.513,3.263 -0.343,0.889 -0.849,1.566 -1.519,2.032 -0.671,0.465 -1.512,0.698 -2.525,0.698 -0.984,0 -1.84,-0.226 -2.565,-0.678 -0.725,-0.451 -1.279,-1.135 -1.662,-2.052 -0.384,-0.917 -0.575,-2.073 -0.575,-3.468 0,-1.259 0.178,-2.347 0.534,-3.264 C -4.16,7.928 -3.612,7.224 -2.874,6.731 -2.135,6.239 -1.177,5.993 0,5.993 c 1.04,0 1.895,0.177 2.565,0.533 0.67,0.356 1.143,0.835 1.416,1.437 h 6.814 C 10.467,6.43 9.816,5.062 8.845,3.858 7.874,2.654 6.643,1.71 5.151,1.026 3.66,0.342 1.942,0 0,0"
             style="fill:#eb6012;fill-opacity:1;fill-rule:nonzero;stroke:none"
             id="path96" /></g><g
           id="g98"
           transform="translate(397.7656,70.095)"><path
             d="M 0,0 V 22.658 H 5.911 V 12.93 H 5.583 c 0,2.353 0.3,4.302 0.902,5.849 0.602,1.546 1.499,2.702 2.689,3.469 1.19,0.765 2.634,1.148 4.33,1.148 h 0.329 c 2.572,0 4.563,-0.855 5.972,-2.565 1.409,-1.71 2.114,-4.33 2.114,-7.86 V 0 h -7.47 v 13.176 c 0,1.04 -0.308,1.895 -0.924,2.565 -0.616,0.671 -1.457,1.006 -2.525,1.006 -1.066,0 -1.922,-0.335 -2.565,-1.006 C 7.792,15.071 7.471,14.188 7.471,13.094 V 0 Z"
             style="fill:#eb6012;fill-opacity:1;fill-rule:nonzero;stroke:none"
             id="path100" /></g><g
           id="g102"
           transform="translate(128.6147,41.6931)"><path
             d="m 0,0 c -1.31,0 -2.397,0.249 -3.262,0.747 -0.864,0.497 -1.512,1.195 -1.945,2.092 -0.432,0.897 -0.648,1.929 -0.648,3.095 v 8.743 h 1.493 v -8.92 c 0,-0.878 0.16,-1.644 0.482,-2.299 0.32,-0.655 0.805,-1.166 1.453,-1.533 0.649,-0.366 1.457,-0.55 2.427,-0.55 0.956,0 1.755,0.18 2.397,0.541 0.642,0.36 1.126,0.871 1.454,1.532 0.327,0.661 0.491,1.431 0.491,2.309 v 8.92 H 5.835 V 5.934 C 5.835,4.768 5.619,3.736 5.187,2.839 4.755,1.942 4.109,1.244 3.251,0.747 2.394,0.249 1.31,0 0,0"
             style="fill:#1d1d1b;fill-opacity:1;fill-rule:nonzero;stroke:none"
             id="path104" /></g><g
           id="g106"
           transform="translate(138.2612,42.0271)"><path
             d="M 0,0 V 14.343 H 1.945 L 6.464,4.421 h 0.354 l 4.499,9.922 h 1.985 V 0 H 11.809 V 12.673 L 11.926,12.653 7.564,3.026 H 5.6 l -4.382,9.627 0.157,0.02 V 0 Z"
             style="fill:#1d1d1b;fill-opacity:1;fill-rule:nonzero;stroke:none"
             id="path108" /></g><g
           id="g110"
           transform="translate(164.5502,42.0271)"><path
             d="m 0,0 -4.892,6.346 h 1.748 L 1.827,0 Z m -8.016,5.442 v 1.336 h 3.851 c 0.707,0 1.296,0.138 1.768,0.413 0.472,0.275 0.825,0.648 1.061,1.12 0.236,0.472 0.354,1.008 0.354,1.611 0,0.602 -0.118,1.14 -0.354,1.611 -0.236,0.472 -0.589,0.848 -1.061,1.13 -0.472,0.281 -1.061,0.422 -1.768,0.422 h -3.851 v 1.317 h 3.596 c 1.06,0 1.961,-0.167 2.701,-0.501 0.74,-0.334 1.303,-0.825 1.69,-1.474 C 0.357,11.779 0.55,10.99 0.55,10.06 V 9.785 C 0.55,8.854 0.354,8.065 -0.039,7.417 -0.432,6.769 -0.996,6.277 -1.729,5.943 -2.462,5.609 -3.36,5.442 -4.42,5.442 Z m -0.884,8.96 h 1.493 V 0 H -8.9 Z"
             style="fill:#1d1d1b;fill-opacity:1;fill-rule:nonzero;stroke:none"
             id="path112" /></g><path
           d="m 172.684,50.043 h 4.5 v -4.715 h -4.5 z"
           style="fill:#1d1d1b;fill-opacity:1;fill-rule:nonzero;stroke:none"
           id="path114" /><g
           id="g116"
           transform="translate(191.3095,41.6931)"><path
             d="m 0,0 c -1.284,0 -2.38,0.226 -3.291,0.678 -0.91,0.452 -1.65,1.044 -2.22,1.778 -0.57,0.733 -0.986,1.529 -1.248,2.387 -0.262,0.858 -0.392,1.693 -0.392,2.505 v 0.374 c 0,0.877 0.133,1.751 0.402,2.623 0.269,0.87 0.688,1.66 1.258,2.367 0.57,0.707 1.3,1.274 2.19,1.7 0.891,0.425 1.946,0.638 3.164,0.638 1.231,0 2.295,-0.216 3.193,-0.648 0.897,-0.432 1.613,-1.039 2.151,-1.818 0.537,-0.779 0.864,-1.699 0.982,-2.76 H 4.676 c -0.105,0.851 -0.38,1.562 -0.825,2.132 -0.445,0.569 -1.012,0.998 -1.699,1.287 -0.688,0.288 -1.451,0.432 -2.289,0.432 -0.904,0 -1.7,-0.161 -2.387,-0.482 -0.688,-0.32 -1.261,-0.766 -1.72,-1.336 -0.458,-0.569 -0.805,-1.225 -1.041,-1.964 -0.236,-0.741 -0.354,-1.53 -0.354,-2.368 0,-0.799 0.115,-1.566 0.344,-2.299 0.229,-0.733 0.58,-1.392 1.051,-1.975 C -3.772,2.668 -3.183,2.21 -2.476,1.876 -1.768,1.542 -0.943,1.375 0,1.375 c 1.31,0 2.41,0.331 3.301,0.993 0.89,0.661 1.441,1.614 1.651,2.858 H 6.464 C 6.32,4.244 5.979,3.356 5.443,2.564 4.905,1.771 4.182,1.146 3.271,0.687 2.361,0.229 1.271,0 0,0"
             style="fill:#1d1d1b;fill-opacity:1;fill-rule:nonzero;stroke:none"
             id="path118" /></g><g
           id="g120"
           transform="translate(200.4062,42.0271)"><path
             d="M 0,0 V 14.343 H 2.496 L 10.354,1.355 h 0.629 L 10.59,1.042 v 13.301 h 1.434 V 0 H 9.51 L 1.65,12.987 H 1.022 L 1.415,13.302 1.415,0 Z"
             style="fill:#1d1d1b;fill-opacity:1;fill-rule:nonzero;stroke:none"
             id="path122" /></g><g
           id="g124"
           transform="translate(225.4179,42.0271)"><path
             d="m 0,0 -4.892,6.346 h 1.748 L 1.827,0 Z m -8.016,5.442 v 1.336 h 3.851 c 0.707,0 1.296,0.138 1.768,0.413 0.472,0.275 0.825,0.648 1.061,1.12 0.236,0.472 0.354,1.008 0.354,1.611 0,0.602 -0.118,1.14 -0.354,1.611 -0.236,0.472 -0.589,0.848 -1.061,1.13 -0.472,0.281 -1.061,0.422 -1.768,0.422 h -3.851 v 1.317 h 3.596 c 1.06,0 1.961,-0.167 2.701,-0.501 0.74,-0.334 1.303,-0.825 1.69,-1.474 C 0.357,11.779 0.55,10.99 0.55,10.06 V 9.785 C 0.55,8.854 0.354,8.065 -0.039,7.417 -0.432,6.769 -0.996,6.277 -1.729,5.943 -2.462,5.609 -3.36,5.442 -4.42,5.442 Z m -0.884,8.96 h 1.493 V 0 H -8.9 Z"
             style="fill:#1d1d1b;fill-opacity:1;fill-rule:nonzero;stroke:none"
             id="path126" /></g><g
           id="g128"
           transform="translate(234.0434,41.6931)"><path
             d="M 0,0 C -1.205,0 -2.22,0.193 -3.045,0.58 -3.871,0.966 -4.496,1.503 -4.922,2.191 -5.348,2.878 -5.56,3.654 -5.56,4.519 h 1.493 c 0,-0.55 0.134,-1.064 0.403,-1.542 0.268,-0.478 0.7,-0.865 1.296,-1.16 C -1.771,1.522 -0.982,1.375 0,1.375 c 0.904,0 1.653,0.131 2.25,0.393 0.596,0.262 1.041,0.616 1.336,1.061 0.294,0.445 0.442,0.943 0.442,1.493 0,0.695 -0.272,1.274 -0.816,1.74 C 2.669,6.526 1.854,6.805 0.766,6.896 l -1.65,0.158 c -1.232,0.104 -2.211,0.488 -2.937,1.149 -0.727,0.661 -1.091,1.535 -1.091,2.623 0,0.825 0.197,1.552 0.59,2.181 0.392,0.629 0.952,1.126 1.679,1.493 0.727,0.367 1.601,0.55 2.623,0.55 1.035,0 1.922,-0.187 2.663,-0.56 0.739,-0.373 1.306,-0.887 1.699,-1.542 0.393,-0.656 0.59,-1.415 0.59,-2.279 H 3.438 c 0,0.523 -0.118,1.015 -0.354,1.473 -0.235,0.459 -0.608,0.829 -1.119,1.11 -0.511,0.282 -1.173,0.423 -1.985,0.423 -0.772,0 -1.411,-0.131 -1.915,-0.393 -0.504,-0.262 -0.878,-0.609 -1.12,-1.041 -0.243,-0.433 -0.363,-0.904 -0.363,-1.415 0,-0.642 0.229,-1.186 0.687,-1.631 0.459,-0.445 1.12,-0.701 1.984,-0.766 L 0.904,8.271 C 1.873,8.193 2.702,7.98 3.389,7.633 4.077,7.286 4.604,6.834 4.971,6.277 5.337,5.721 5.521,5.069 5.521,4.322 5.521,3.484 5.295,2.737 4.843,2.083 4.391,1.428 3.753,0.917 2.928,0.55 2.103,0.184 1.126,0 0,0"
             style="fill:#1d1d1b;fill-opacity:1;fill-rule:nonzero;stroke:none"
             id="path130" /></g><path
           d="m 246.677,50.043 h 4.5 v -4.715 h -4.5 z"
           style="fill:#1d1d1b;fill-opacity:1;fill-rule:nonzero;stroke:none"
           id="path132" /><g
           id="g134"
           transform="translate(263.102,41.6931)"><path
             d="m 0,0 c -1.087,0 -1.998,0.219 -2.731,0.658 -0.734,0.439 -1.29,1.018 -1.67,1.739 -0.38,0.72 -0.57,1.493 -0.57,2.318 h 1.434 c 0,-0.654 0.141,-1.237 0.423,-1.748 C -2.833,2.456 -2.43,2.05 -1.906,1.749 -1.382,1.447 -0.747,1.297 0,1.297 c 0.747,0 1.382,0.147 1.906,0.442 0.523,0.295 0.926,0.7 1.208,1.218 0.282,0.517 0.423,1.104 0.423,1.758 0,0.642 -0.138,1.225 -0.413,1.749 C 2.849,6.988 2.446,7.404 1.916,7.712 1.385,8.02 0.747,8.173 0,8.173 -0.524,8.173 -1.042,8.085 -1.552,7.908 -2.063,7.731 -2.489,7.473 -2.83,7.132 h -1.355 l 0.747,7.545 H 3.694 V 13.4 h -6.327 l 0.413,0.511 -0.59,-5.895 -0.452,0.098 c 0.406,0.407 0.885,0.727 1.434,0.963 0.551,0.236 1.18,0.354 1.887,0.354 1.074,0 1.978,-0.223 2.711,-0.668 C 3.503,8.317 4.057,7.744 4.43,7.043 4.804,6.343 4.99,5.606 4.99,4.833 V 4.578 C 4.99,3.805 4.8,3.068 4.42,2.368 4.041,1.667 3.48,1.097 2.741,0.658 2,0.219 1.087,0 0,0"
             style="fill:#1d1d1b;fill-opacity:1;fill-rule:nonzero;stroke:none"
             id="path136" /></g><g
           id="g138"
           transform="translate(274.8315,41.6931)"><path
             d="m 0,0 c -1.087,0 -1.998,0.219 -2.731,0.658 -0.734,0.439 -1.29,1.018 -1.67,1.739 -0.38,0.72 -0.57,1.493 -0.57,2.318 h 1.434 c 0,-0.654 0.141,-1.237 0.423,-1.748 C -2.833,2.456 -2.43,2.05 -1.906,1.749 -1.382,1.447 -0.747,1.297 0,1.297 c 0.747,0 1.382,0.147 1.906,0.442 0.523,0.295 0.926,0.7 1.208,1.218 0.282,0.517 0.423,1.104 0.423,1.758 0,0.642 -0.138,1.225 -0.413,1.749 C 2.849,6.988 2.446,7.404 1.916,7.712 1.385,8.02 0.747,8.173 0,8.173 -0.524,8.173 -1.042,8.085 -1.552,7.908 -2.063,7.731 -2.489,7.473 -2.83,7.132 h -1.355 l 0.747,7.545 H 3.694 V 13.4 h -6.327 l 0.413,0.511 -0.59,-5.895 -0.452,0.098 c 0.406,0.407 0.885,0.727 1.434,0.963 0.551,0.236 1.18,0.354 1.887,0.354 1.074,0 1.978,-0.223 2.711,-0.668 C 3.503,8.317 4.057,7.744 4.43,7.043 4.804,6.343 4.99,5.606 4.99,4.833 V 4.578 C 4.99,3.805 4.8,3.068 4.42,2.368 4.041,1.667 3.48,1.097 2.741,0.658 2,0.219 1.087,0 0,0"
             style="fill:#1d1d1b;fill-opacity:1;fill-rule:nonzero;stroke:none"
             id="path140" /></g><g
           id="g142"
           transform="translate(284.5766,42.0271)"><path
             d="m 0,0 v 13.577 l 0.648,-0.511 h -3.91 v 1.277 H 1.473 L 1.473,0 Z"
             style="fill:#1d1d1b;fill-opacity:1;fill-rule:nonzero;stroke:none"
             id="path144" /></g><g
           id="g146"
           transform="translate(294.9697,42.9504)"><path
             d="m 0,0 c 0.786,0 1.444,0.157 1.975,0.472 0.53,0.314 0.926,0.739 1.189,1.277 0.261,0.537 0.393,1.139 0.393,1.807 0,0.669 -0.128,1.268 -0.384,1.798 C 2.918,5.885 2.531,6.304 2.014,6.612 1.497,6.919 0.858,7.073 0.099,7.073 -0.648,7.073 -1.3,6.929 -1.856,6.641 -2.414,6.353 -2.846,5.943 -3.153,5.413 -3.461,4.883 -3.615,4.257 -3.615,3.537 -3.615,2.921 -3.484,2.345 -3.222,1.808 -2.96,1.271 -2.561,0.835 -2.023,0.501 -1.487,0.167 -0.812,0 0,0 m 0,-1.297 c -0.956,0 -1.768,0.167 -2.436,0.502 -0.668,0.334 -1.209,0.801 -1.621,1.404 -0.413,0.602 -0.717,1.32 -0.914,2.152 -0.196,0.831 -0.295,1.739 -0.295,2.721 v 0.825 c 0,2.331 0.544,4.116 1.631,5.354 1.088,1.238 2.712,1.857 4.873,1.857 0.445,0 0.845,-0.014 1.199,-0.039 C 2.79,13.452 3.17,13.413 3.576,13.36 v -1.277 c -0.406,0.066 -0.799,0.112 -1.179,0.138 -0.38,0.026 -0.793,0.039 -1.238,0.039 -1.231,0 -2.22,-0.239 -2.967,-0.717 C -2.554,11.065 -3.094,10.374 -3.428,9.47 -3.762,8.566 -3.929,7.473 -3.929,6.189 V 4.794 L -4.322,3.635 c 0.012,0.995 0.206,1.84 0.579,2.534 0.373,0.695 0.901,1.225 1.582,1.592 0.681,0.366 1.48,0.55 2.397,0.55 1.022,0 1.886,-0.209 2.594,-0.628 C 3.537,7.263 4.07,6.693 4.431,5.973 4.791,5.252 4.971,4.447 4.971,3.556 4.971,2.652 4.784,1.834 4.411,1.101 4.038,0.367 3.484,-0.216 2.751,-0.648 2.017,-1.081 1.101,-1.297 0,-1.297"
             style="fill:#1d1d1b;fill-opacity:1;fill-rule:nonzero;stroke:none"
             id="path148" /></g><path
           d="m 306.817,50.043 h 4.5 v -4.715 h -4.5 z"
           style="fill:#1d1d1b;fill-opacity:1;fill-rule:nonzero;stroke:none"
           id="path150" /><g
           id="g152"
           transform="translate(323.9301,41.6931)"><path
             d="M 0,0 C -1.205,0 -2.22,0.193 -3.045,0.58 -3.871,0.966 -4.496,1.503 -4.922,2.191 -5.348,2.878 -5.56,3.654 -5.56,4.519 h 1.493 c 0,-0.55 0.134,-1.064 0.403,-1.542 0.268,-0.478 0.7,-0.865 1.296,-1.16 C -1.771,1.522 -0.982,1.375 0,1.375 c 0.904,0 1.653,0.131 2.25,0.393 0.596,0.262 1.041,0.616 1.336,1.061 0.294,0.445 0.442,0.943 0.442,1.493 0,0.695 -0.272,1.274 -0.816,1.74 C 2.669,6.526 1.854,6.805 0.766,6.896 l -1.65,0.158 c -1.232,0.104 -2.211,0.488 -2.937,1.149 -0.727,0.661 -1.091,1.535 -1.091,2.623 0,0.825 0.197,1.552 0.59,2.181 0.392,0.629 0.952,1.126 1.679,1.493 0.727,0.367 1.601,0.55 2.623,0.55 1.035,0 1.922,-0.187 2.663,-0.56 0.739,-0.373 1.306,-0.887 1.699,-1.542 0.393,-0.656 0.59,-1.415 0.59,-2.279 H 3.438 c 0,0.523 -0.118,1.015 -0.354,1.473 -0.235,0.459 -0.608,0.829 -1.119,1.11 -0.511,0.282 -1.173,0.423 -1.985,0.423 -0.772,0 -1.411,-0.131 -1.915,-0.393 -0.504,-0.262 -0.878,-0.609 -1.12,-1.041 -0.243,-0.433 -0.363,-0.904 -0.363,-1.415 0,-0.642 0.229,-1.186 0.687,-1.631 0.459,-0.445 1.12,-0.701 1.984,-0.766 L 0.904,8.271 C 1.873,8.193 2.702,7.98 3.389,7.633 4.077,7.286 4.604,6.834 4.971,6.277 5.337,5.721 5.521,5.069 5.521,4.322 5.521,3.484 5.295,2.737 4.843,2.083 4.391,1.428 3.753,0.917 2.928,0.55 2.103,0.184 1.126,0 0,0"
             style="fill:#1d1d1b;fill-opacity:1;fill-rule:nonzero;stroke:none"
             id="path154" /></g><g
           id="g156"
           transform="translate(338.6264,42.0271)"><path
             d="m 0,0 v 3.124 h -0.236 v 3.694 c 0,0.772 -0.203,1.365 -0.609,1.778 -0.406,0.412 -1.035,0.619 -1.886,0.619 -0.393,0 -0.79,-0.007 -1.189,-0.02 C -4.319,9.182 -4.699,9.166 -5.059,9.146 -5.42,9.126 -5.737,9.104 -6.012,9.077 v 1.297 c 0.288,0.026 0.582,0.052 0.884,0.079 0.301,0.026 0.612,0.042 0.933,0.049 0.321,0.006 0.632,0.01 0.933,0.01 1.061,0 1.916,-0.132 2.565,-0.393 C -0.049,9.856 0.425,9.447 0.727,8.891 1.028,8.333 1.179,7.597 1.179,6.68 V 0 Z m -3.517,-0.275 c -0.733,0 -1.382,0.131 -1.945,0.393 -0.563,0.262 -0.999,0.641 -1.307,1.139 -0.308,0.498 -0.461,1.101 -0.461,1.808 0,0.694 0.16,1.284 0.481,1.768 0.321,0.485 0.786,0.855 1.395,1.11 0.609,0.256 1.346,0.384 2.21,0.384 h 3.046 v -1.12 h -3.144 c -0.825,0 -1.457,-0.2 -1.896,-0.6 -0.439,-0.399 -0.658,-0.92 -0.658,-1.562 0,-0.655 0.229,-1.175 0.688,-1.562 0.458,-0.386 1.08,-0.579 1.866,-0.579 0.485,0 0.95,0.088 1.395,0.265 0.445,0.177 0.819,0.478 1.12,0.904 0.301,0.426 0.465,1.011 0.491,1.759 L 0.196,3.222 C 0.144,2.449 -0.039,1.804 -0.354,1.287 -0.668,0.77 -1.094,0.38 -1.631,0.118 -2.168,-0.144 -2.797,-0.275 -3.517,-0.275"
             style="fill:#1d1d1b;fill-opacity:1;fill-rule:nonzero;stroke:none"
             id="path158" /></g><path
           d="m 343.636,52.421 h 1.454 V 42.027 h -1.454 z m 0.315,1.925 c -0.354,0 -0.619,0.095 -0.796,0.285 -0.177,0.19 -0.265,0.429 -0.265,0.717 0,0.288 0.088,0.527 0.265,0.717 0.177,0.19 0.442,0.285 0.796,0.285 0.353,0 0.615,-0.095 0.785,-0.285 0.171,-0.19 0.256,-0.429 0.256,-0.717 0,-0.288 -0.085,-0.527 -0.256,-0.717 -0.17,-0.19 -0.432,-0.285 -0.785,-0.285 m -1.985,-1.925 h 3.124 v -1.179 h -3.124 z"
           style="fill:#1d1d1b;fill-opacity:1;fill-rule:nonzero;stroke:none"
           id="path160" /><g
           id="g162"
           transform="translate(348.5674,42.0271)"><path
             d="M 0,0 V 10.394 H 1.179 V 6.032 H 0.943 c 0,0.969 0.144,1.801 0.432,2.495 0.289,0.694 0.721,1.231 1.297,1.611 0.577,0.38 1.304,0.57 2.181,0.57 h 0.059 c 1.31,0 2.286,-0.41 2.927,-1.228 C 8.481,8.661 8.802,7.512 8.802,6.032 V 0 H 7.348 V 6.346 C 7.348,7.25 7.099,7.977 6.602,8.527 6.104,9.077 5.41,9.353 4.519,9.353 3.602,9.353 2.865,9.067 2.309,8.498 1.752,7.928 1.474,7.178 1.474,6.248 V 0 Z"
             style="fill:#1d1d1b;fill-opacity:1;fill-rule:nonzero;stroke:none"
             id="path164" /></g><g
           id="g166"
           transform="translate(364.4233,41.9094)"><path
             d="m 0,0 c -0.721,0 -1.343,0.105 -1.867,0.314 -0.524,0.209 -0.93,0.566 -1.218,1.071 -0.288,0.504 -0.432,1.182 -0.432,2.033 v 10.374 h 1.414 V 3.202 c 0,-0.602 0.165,-1.064 0.492,-1.385 0.327,-0.321 0.792,-0.481 1.395,-0.481 H 1.65 L 1.65,0 Z m -5.383,10.511 h 7.034 v -1.12 h -7.034 z"
             style="fill:#1d1d1b;fill-opacity:1;fill-rule:nonzero;stroke:none"
             id="path168" /></g><path
           d="m 367.685,48.118 h 6.896 v -1.257 h -6.896 z"
           style="fill:#1d1d1b;fill-opacity:1;fill-rule:nonzero;stroke:none"
           id="path170" /><g
           id="g172"
           transform="translate(381.0844,57.6077)"><path
             d="M 0,0 2.397,3.045 H 4.106 L 1.375,0 Z m -2.043,-14.225 h 7.171 v -1.355 h -7.171 z m 0,6.602 H 4.46 v -1.336 h -6.503 z m 0,6.385 h 6.956 v -1.355 h -6.956 z m -1.14,0 h 1.493 v -14.343 h -1.493 z"
             style="fill:#1d1d1b;fill-opacity:1;fill-rule:nonzero;stroke:none"
             id="path174" /></g><g
           id="g176"
           transform="translate(392.7944,41.9094)"><path
             d="m 0,0 c -0.721,0 -1.343,0.105 -1.867,0.314 -0.524,0.209 -0.93,0.566 -1.218,1.071 -0.288,0.504 -0.432,1.182 -0.432,2.033 v 10.374 h 1.414 V 3.202 c 0,-0.602 0.165,-1.064 0.492,-1.385 0.327,-0.321 0.792,-0.481 1.395,-0.481 H 1.65 L 1.65,0 Z m -5.383,10.511 h 7.034 v -1.12 h -7.034 z"
             style="fill:#1d1d1b;fill-opacity:1;fill-rule:nonzero;stroke:none"
             id="path178" /></g><path
           d="m 397.451,52.421 h 1.454 V 42.027 h -1.454 z m 0.314,1.925 c -0.354,0 -0.619,0.095 -0.796,0.285 -0.177,0.19 -0.265,0.429 -0.265,0.717 0,0.288 0.088,0.527 0.265,0.717 0.177,0.19 0.442,0.285 0.796,0.285 0.354,0 0.615,-0.095 0.786,-0.285 0.17,-0.19 0.255,-0.429 0.255,-0.717 0,-0.288 -0.085,-0.527 -0.255,-0.717 -0.171,-0.19 -0.432,-0.285 -0.786,-0.285 m -1.984,-1.925 h 3.124 v -1.179 h -3.124 z"
           style="fill:#1d1d1b;fill-opacity:1;fill-rule:nonzero;stroke:none"
           id="path180" /><g
           id="g182"
           transform="translate(406.7241,41.6931)"><path
             d="M 0,0 C -0.891,0 -1.664,0.154 -2.318,0.462 -2.974,0.77 -3.511,1.182 -3.93,1.7 -4.349,2.217 -4.66,2.796 -4.863,3.438 -5.066,4.08 -5.167,4.742 -5.167,5.423 v 0.275 c 0,0.668 0.101,1.323 0.304,1.965 0.203,0.641 0.514,1.218 0.933,1.729 0.419,0.51 0.947,0.92 1.582,1.228 0.635,0.307 1.378,0.462 2.23,0.462 1.087,0 1.994,-0.243 2.721,-0.728 C 3.33,9.87 3.877,9.25 4.244,8.498 4.61,7.744 4.794,6.936 4.794,6.071 V 5.305 H -4.5 V 6.444 H 3.772 L 3.399,5.875 c 0,0.772 -0.134,1.45 -0.403,2.033 C 2.728,8.491 2.334,8.95 1.817,9.284 1.3,9.618 0.655,9.785 -0.118,9.785 -0.93,9.785 -1.604,9.595 -2.142,9.215 -2.679,8.834 -3.082,8.331 -3.35,7.702 -3.619,7.073 -3.753,6.359 -3.753,5.56 c 0,-0.786 0.134,-1.503 0.403,-2.151 0.268,-0.649 0.681,-1.163 1.238,-1.542 0.556,-0.381 1.26,-0.57 2.112,-0.57 0.904,0 1.637,0.206 2.201,0.619 0.563,0.412 0.91,0.9 1.041,1.463 H 4.617 C 4.486,2.685 4.211,2.086 3.792,1.582 3.373,1.077 2.842,0.687 2.201,0.413 1.559,0.138 0.825,0 0,0"
             style="fill:#1d1d1b;fill-opacity:1;fill-rule:nonzero;stroke:none"
             id="path184" /></g><g
           id="g186"
           transform="translate(413.9546,42.0271)"><path
             d="M 0,0 V 10.394 H 1.179 V 6.032 H 0.943 c 0,0.969 0.144,1.801 0.432,2.495 0.289,0.694 0.721,1.231 1.297,1.611 0.577,0.38 1.304,0.57 2.181,0.57 h 0.059 c 1.31,0 2.286,-0.41 2.927,-1.228 C 8.481,8.661 8.802,7.512 8.802,6.032 V 0 H 7.348 V 6.346 C 7.348,7.25 7.099,7.977 6.602,8.527 6.104,9.077 5.41,9.353 4.519,9.353 3.602,9.353 2.865,9.067 2.309,8.498 1.752,7.928 1.474,7.178 1.474,6.248 V 0 Z"
             style="fill:#1d1d1b;fill-opacity:1;fill-rule:nonzero;stroke:none"
             id="path188" /></g><g
           id="g190"
           transform="translate(426.0376,42.0271)"><path
             d="M 0,0 V 10.394 H 1.179 V 6.032 H 0.943 c 0,0.969 0.144,1.801 0.432,2.495 0.289,0.694 0.721,1.231 1.297,1.611 0.577,0.38 1.304,0.57 2.181,0.57 h 0.059 c 1.31,0 2.286,-0.41 2.927,-1.228 C 8.481,8.661 8.802,7.512 8.802,6.032 V 0 H 7.348 V 6.346 C 7.348,7.25 7.099,7.977 6.602,8.527 6.104,9.077 5.41,9.353 4.519,9.353 3.602,9.353 2.865,9.067 2.309,8.498 1.752,7.928 1.474,7.178 1.474,6.248 V 0 Z"
             style="fill:#1d1d1b;fill-opacity:1;fill-rule:nonzero;stroke:none"
             id="path192" /></g><g
           id="g194"
           transform="translate(442.4633,41.6931)"><path
             d="M 0,0 C -0.891,0 -1.664,0.154 -2.318,0.462 -2.974,0.77 -3.511,1.182 -3.93,1.7 -4.349,2.217 -4.66,2.796 -4.863,3.438 -5.066,4.08 -5.167,4.742 -5.167,5.423 v 0.275 c 0,0.668 0.101,1.323 0.304,1.965 0.203,0.641 0.514,1.218 0.933,1.729 0.419,0.51 0.947,0.92 1.582,1.228 0.635,0.307 1.378,0.462 2.23,0.462 1.087,0 1.994,-0.243 2.721,-0.728 C 3.33,9.87 3.877,9.25 4.244,8.498 4.61,7.744 4.794,6.936 4.794,6.071 V 5.305 H -4.5 V 6.444 H 3.772 L 3.399,5.875 c 0,0.772 -0.134,1.45 -0.403,2.033 C 2.728,8.491 2.334,8.95 1.817,9.284 1.3,9.618 0.655,9.785 -0.118,9.785 -0.93,9.785 -1.604,9.595 -2.142,9.215 -2.679,8.834 -3.082,8.331 -3.35,7.702 -3.619,7.073 -3.753,6.359 -3.753,5.56 c 0,-0.786 0.134,-1.503 0.403,-2.151 0.268,-0.649 0.681,-1.163 1.238,-1.542 0.556,-0.381 1.26,-0.57 2.112,-0.57 0.904,0 1.637,0.206 2.201,0.619 0.563,0.412 0.91,0.9 1.041,1.463 H 4.617 C 4.486,2.685 4.211,2.086 3.792,1.582 3.373,1.077 2.842,0.687 2.201,0.413 1.559,0.138 0.825,0 0,0"
             style="fill:#1d1d1b;fill-opacity:1;fill-rule:nonzero;stroke:none"
             id="path196" /></g><g
           id="g198"
           transform="translate(82.364,118.5576)"><path
             d="M 0,0 V 7.915 L -23.828,7.957 V 0.002 l 6.377,-4.02 -6.377,-3.935 v -7.954 L 0,-15.949 v 7.916 h -13.736 l -0.046,0.078 5.824,3.939 -5.821,3.937 0.046,0.079 z"
             style="fill:#eb6012;fill-opacity:1;fill-rule:nonzero;stroke:none"
             id="path200" /></g><g
           id="g202"
           transform="translate(90.2502,126.4726)"><path
             d="m 0,0 v -39.564 c 0,-10.925 -8.893,-19.814 -19.823,-19.814 -10.931,0 -19.824,8.889 -19.824,19.814 V 0 h -8.239 v -39.564 c 0,-15.467 12.589,-28.05 28.063,-28.05 15.473,0 28.062,12.583 28.062,28.05 L 8.239,0 Z"
             style="fill:#eb6012;fill-opacity:1;fill-rule:nonzero;stroke:none"
             id="path204" /></g><path
           d="M 98.49,142.382 H 42.364 v -7.955 H 98.49 Z"
           style="fill:#00365f;fill-opacity:1;fill-rule:nonzero;stroke:none"
           id="path206" /><g
           id="g208"
           transform="translate(70.4267,98.6314)"><path
             d="M 0,0 H -11.937 V -7.955 H 0 c 2.198,0 3.979,-1.78 3.979,-3.977 0,-2.197 -1.781,-3.977 -3.979,-3.977 h -3.979 v -7.955 H 0 c 6.593,0 11.937,5.342 11.937,11.932 C 11.937,-5.342 6.593,0 0,0"
             style="fill:#eb6012;fill-opacity:1;fill-rule:nonzero;stroke:none"
             id="path210" /></g></g></g></g></svg>
